<svg xmlns="http://www.w3.org/2000/svg" width="267.5389404296875" height="288.8182067871094" viewBox="-30.608280181884766 -39.76255798339844 267.5389404296875 288.8182067871094"><title>Neo4j Graph Visualization</title><desc>Created using Neo4j (http://www.neo4j.com/)</desc><g class="layer relationships"><g class="relationship" transform="translate(114.43035249211476 -10.762558067575732) rotate(390.3728401573951)"><path class="outline" fill="#A5ABB6" stroke="none" d="M 25 0.5 L 33.29548104672597 0.5 L 33.29548104672597 -0.5 L 25 -0.5 Z M 68.078813871433 0.5 L 76.37429491815897 0.5 L 76.37429491815897 3.5 L 83.37429491815897 0 L 76.37429491815897 -3.5 L 76.37429491815897 -0.5 L 68.078813871433 -0.5 Z"/><text text-anchor="middle" pointer-events="none" font-size="8px" fill="#000000" x="50.68714745907948" y="3" font-family="sans-serif">ORIGIN</text></g><g class="relationship" transform="translate(114.43035249211476 -10.762558067575732) rotate(509.471568852407)"><path class="outline" fill="#A5ABB6" stroke="none" d="M 25 0.5 L 25.881502679688225 0.5 L 25.881502679688225 -0.5 L 25 -0.5 Z M 74.88150267968823 0.5 L 75.76300535937645 0.5 L 75.76300535937645 3.5 L 82.76300535937645 0 L 75.76300535937645 -3.5 L 75.76300535937645 -0.5 L 74.88150267968823 -0.5 Z"/><text text-anchor="middle" pointer-events="none" font-size="8px" fill="#000000" x="50.381502679688225" y="3" transform="rotate(180 50.381502679688225 0)" font-family="sans-serif">DESTINA…</text></g><g class="relationship" transform="translate(-1.6082803072537306 149.2061311782099) rotate(282.44050155348805)"><path class="outline" fill="#A5ABB6" stroke="none" d="M 25 0.5 L 32.987791279138776 0.5 L 32.987791279138776 -0.5 L 25 -0.5 Z M 67.7711241038458 0.5 L 75.75891538298458 0.5 L 75.75891538298458 3.5 L 82.75891538298458 0 L 75.75891538298458 -3.5 L 75.75891538298458 -0.5 L 67.7711241038458 -0.5 Z"/><text text-anchor="middle" pointer-events="none" font-size="8px" fill="#000000" x="50.37945769149229" y="3" font-family="sans-serif">ORIGIN</text></g><g class="relationship" transform="translate(-1.6082803072537306 149.2061311782099) rotate(400.8127992019665)"><path class="outline" fill="#A5ABB6" stroke="none" d="M 25 0.5 L 26.200307052285872 0.5 L 26.200307052285872 -0.5 L 25 -0.5 Z M 75.20030705228586 0.5 L 76.40061410457174 0.5 L 76.40061410457174 3.5 L 83.40061410457174 0 L 76.40061410457174 -3.5 L 76.40061410457174 -0.5 L 75.20030705228586 -0.5 Z"/><text text-anchor="middle" pointer-events="none" font-size="8px" fill="#000000" x="50.70030705228587" y="3" font-family="sans-serif">DESTINA…</text></g></g><g class="layer nodes"><g class="node" transform="translate(207.9306489783174,44.03417866008258)"><circle class="outline" cx="0" cy="0" r="25" fill="#ECB5C9" stroke="#da7298" stroke-width="2px"/><text text-anchor="middle" pointer-events="none" font-family="sans-serif" dy="1.5625" font-size="25" fill="#2A2C34"/><text text-anchor="middle" pointer-events="none" x="0" y="5" font-size="10px" fill="#2A2C34" font-family="sans-serif"> MSN</text></g><g class="node" transform="translate(80.43462369796696,220.0556551048985)"><circle class="outline" cx="0" cy="0" r="25" fill="#ECB5C9" stroke="#da7298" stroke-width="2px"/><text text-anchor="middle" pointer-events="none" font-family="sans-serif" dy="1.5625" font-size="25" fill="#2A2C34"/><text text-anchor="middle" pointer-events="none" x="0" y="5" font-size="10px" fill="#2A2C34" font-family="sans-serif"> GRR</text></g><g class="node" transform="translate(114.43035249211476,-10.762558067575732)"><circle class="outline" cx="0" cy="0" r="25" fill="#FFC454" stroke="#d7a013" stroke-width="2px"/><text text-anchor="middle" pointer-events="none" font-family="sans-serif" dy="1.5625" font-size="25" fill="#2A2C34"/><text text-anchor="middle" pointer-events="none" x="0" y="5" font-size="10px" fill="#2A2C34" font-family="sans-serif"> 11/30/2…</text></g><g class="node" transform="translate(21.605756118267145,43.977369153030565)"><circle class="outline" cx="0" cy="0" r="25" fill="#ECB5C9" stroke="#da7298" stroke-width="2px"/><text text-anchor="middle" pointer-events="none" font-family="sans-serif" dy="1.5625" font-size="25" fill="#2A2C34"/><text text-anchor="middle" pointer-events="none" x="0" y="5" font-size="10px" fill="#2A2C34" font-family="sans-serif"> ORD</text></g><g class="node" transform="translate(-1.6082803072537306,149.2061311782099)"><circle class="outline" cx="0" cy="0" r="25" fill="#FFC454" stroke="#d7a013" stroke-width="2px"/><text text-anchor="middle" pointer-events="none" font-family="sans-serif" dy="1.5625" font-size="25" fill="#2A2C34"/><text text-anchor="middle" pointer-events="none" x="0" y="5" font-size="10px" fill="#2A2C34" font-family="sans-serif"> 11/17/2…</text></g></g></svg>