<svg xmlns="http://www.w3.org/2000/svg" width="237.9903106689453" height="246.68594360351562" viewBox="-10.009994506835938 -11.683773040771484 237.9903106689453 246.68594360351562"><title>Neo4j Graph Visualization</title><desc>Created using Neo4j (http://www.neo4j.com/)</desc><g class="layer relationships"><g class="relationship" transform="translate(124.9755914800968 126.23174214201393) rotate(407.70193730454076)"><path class="outline" fill="#A5ABB6" stroke="none" d="M 25 0.5 L 27.74081831433911 0.5 L 27.74081831433911 -0.5 L 25 -0.5 Z M 73.10748320081372 0.5 L 75.84830151515283 0.5 L 75.84830151515283 3.5 L 82.84830151515283 0 L 75.84830151515283 -3.5 L 75.84830151515283 -0.5 L 73.10748320081372 -0.5 Z"/><text text-anchor="middle" pointer-events="none" font-size="8px" fill="#000000" x="50.42415075757641" y="3" font-family="sans-serif">ACTED_IN</text></g><g class="relationship" transform="translate(124.9755914800968 126.23174214201393) rotate(310.94055060650936)"><path class="outline" fill="#A5ABB6" stroke="none" d="M 25 0.5 L 30.28507700294675 0.5 L 30.28507700294675 -0.5 L 25 -0.5 Z M 75.65174188942136 0.5 L 80.93681889236811 0.5 L 80.93681889236811 3.5 L 87.93681889236811 0 L 80.93681889236811 -3.5 L 80.93681889236811 -0.5 L 75.65174188942136 -0.5 Z"/><text text-anchor="middle" pointer-events="none" font-size="8px" fill="#000000" x="52.968409446184054" y="3" font-family="sans-serif">ACTED_IN</text></g><g class="relationship" transform="translate(124.9755914800968 126.23174214201393) rotate(254.10801540487995)"><path class="outline" fill="#A5ABB6" stroke="none" d="M 25 0.5 L 30.438534227012084 0.5 L 30.438534227012084 -0.5 L 25 -0.5 Z M 75.8051991134867 0.5 L 81.24373334049878 0.5 L 81.24373334049878 3.5 L 88.24373334049878 0 L 81.24373334049878 -3.5 L 81.24373334049878 -0.5 L 75.8051991134867 -0.5 Z"/><text text-anchor="middle" pointer-events="none" font-size="8px" fill="#000000" x="53.12186667024939" y="3" transform="rotate(180 53.12186667024939 0)" font-family="sans-serif">ACTED_IN</text></g><g class="relationship" transform="translate(124.9755914800968 126.23174214201393) rotate(200.64053282263467)"><path class="outline" fill="#A5ABB6" stroke="none" d="M 25 0.5 L 30.444370326840712 0.5 L 30.444370326840712 -0.5 L 25 -0.5 Z M 75.81103521331532 0.5 L 81.25540554015603 0.5 L 81.25540554015603 3.5 L 88.25540554015603 0 L 81.25540554015603 -3.5 L 81.25540554015603 -0.5 L 75.81103521331532 -0.5 Z"/><text text-anchor="middle" pointer-events="none" font-size="8px" fill="#000000" x="53.12770277007802" y="3" transform="rotate(180 53.12770277007802 0)" font-family="sans-serif">ACTED_IN</text></g><g class="relationship" transform="translate(124.9755914800968 126.23174214201393) rotate(503.932059906104)"><path class="outline" fill="#A5ABB6" stroke="none" d="M 25 0.5 L 30.309363742246504 0.5 L 30.309363742246504 -0.5 L 25 -0.5 Z M 75.67602862872111 0.5 L 80.98539237096762 0.5 L 80.98539237096762 3.5 L 87.98539237096762 0 L 80.98539237096762 -3.5 L 80.98539237096762 -0.5 L 75.67602862872111 -0.5 Z"/><text text-anchor="middle" pointer-events="none" font-size="8px" fill="#000000" x="52.99269618548381" y="3" transform="rotate(180 52.99269618548381 0)" font-family="sans-serif">ACTED_IN</text></g></g><g class="layer nodes"><g class="node" transform="translate(124.9755914800968,126.23174214201393)"><circle class="outline" cx="0" cy="0" r="25" fill="#F79767" stroke="#f36924" stroke-width="2px"/><text text-anchor="middle" pointer-events="none" font-family="sans-serif" dy="1.5625" font-size="25" fill="#FFFFFF"/><text text-anchor="middle" pointer-events="none" font-family="sans-serif" dy="1.5625" font-size="25" fill="#FFFFFF"/><text text-anchor="middle" pointer-events="none" x="0" y="0" font-size="10px" fill="#FFFFFF" font-family="sans-serif"> Hugo</text><text text-anchor="middle" pointer-events="none" x="0" y="10" font-size="10px" fill="#FFFFFF" font-family="sans-serif"> Weavi…</text></g><g class="node" transform="translate(197.55615077755687,206.00215364760413)"><circle class="outline" cx="0" cy="0" r="25" fill="#57C7E3" stroke="#23b3d7" stroke-width="2px"/><text text-anchor="middle" pointer-events="none" font-family="sans-serif" dy="1.5625" font-size="25" fill="#2A2C34"/><text text-anchor="middle" pointer-events="none" font-family="sans-serif" dy="1.5625" font-size="25" fill="#2A2C34"/><text text-anchor="middle" pointer-events="none" x="0" y="0" font-size="10px" fill="#2A2C34" font-family="sans-serif"> Cloud</text><text text-anchor="middle" pointer-events="none" x="0" y="10" font-size="10px" fill="#2A2C34" font-family="sans-serif"> Atlas</text></g><g class="node" transform="translate(198.98033308772816,40.920410648974446)"><circle class="outline" cx="0" cy="0" r="25" fill="#57C7E3" stroke="#23b3d7" stroke-width="2px"/><text text-anchor="middle" pointer-events="none" font-family="sans-serif" dy="1.5625" font-size="25" fill="#2A2C34"/><text text-anchor="middle" pointer-events="none" font-family="sans-serif" dy="1.5625" font-size="25" fill="#2A2C34"/><text text-anchor="middle" pointer-events="none" x="0" y="0" font-size="10px" fill="#2A2C34" font-family="sans-serif"> V for</text><text text-anchor="middle" pointer-events="none" x="0" y="10" font-size="10px" fill="#2A2C34" font-family="sans-serif"> Vendet…</text></g><g class="node" transform="translate(93.96666322731394,17.316226674713487)"><circle class="outline" cx="0" cy="0" r="25" fill="#57C7E3" stroke="#23b3d7" stroke-width="2px"/><text text-anchor="middle" pointer-events="none" font-family="sans-serif" dy="1.5625" font-size="25" fill="#2A2C34"/><text text-anchor="middle" pointer-events="none" font-family="sans-serif" dy="1.5625" font-size="25" fill="#2A2C34"/><text text-anchor="middle" pointer-events="none" font-family="sans-serif" dy="1.5625" font-size="25" fill="#2A2C34"/><text text-anchor="middle" pointer-events="none" x="0" y="-5" font-size="10px" fill="#2A2C34" font-family="sans-serif"> The</text><text text-anchor="middle" pointer-events="none" x="0" y="5" font-size="10px" fill="#2A2C34" font-family="sans-serif"> Matrix</text><text text-anchor="middle" pointer-events="none" x="0" y="15" font-size="10px" fill="#2A2C34" font-family="sans-serif"> Revol…</text></g><g class="node" transform="translate(18.99000537230295,86.3087860709435)"><circle class="outline" cx="0" cy="0" r="25" fill="#57C7E3" stroke="#23b3d7" stroke-width="2px"/><text text-anchor="middle" pointer-events="none" font-family="sans-serif" dy="1.5625" font-size="25" fill="#2A2C34"/><text text-anchor="middle" pointer-events="none" font-family="sans-serif" dy="1.5625" font-size="25" fill="#2A2C34"/><text text-anchor="middle" pointer-events="none" font-family="sans-serif" dy="1.5625" font-size="25" fill="#2A2C34"/><text text-anchor="middle" pointer-events="none" x="0" y="-5" font-size="10px" fill="#2A2C34" font-family="sans-serif"> The</text><text text-anchor="middle" pointer-events="none" x="0" y="5" font-size="10px" fill="#2A2C34" font-family="sans-serif"> Matrix</text><text text-anchor="middle" pointer-events="none" x="0" y="15" font-size="10px" fill="#2A2C34" font-family="sans-serif"> Reloa…</text></g><g class="node" transform="translate(33.64730207938721,192.7512313490256)"><circle class="outline" cx="0" cy="0" r="25" fill="#57C7E3" stroke="#23b3d7" stroke-width="2px"/><text text-anchor="middle" pointer-events="none" font-family="sans-serif" dy="1.5625" font-size="25" fill="#2A2C34"/><text text-anchor="middle" pointer-events="none" font-family="sans-serif" dy="1.5625" font-size="25" fill="#2A2C34"/><text text-anchor="middle" pointer-events="none" x="0" y="0" font-size="10px" fill="#2A2C34" font-family="sans-serif"> The</text><text text-anchor="middle" pointer-events="none" x="0" y="10" font-size="10px" fill="#2A2C34" font-family="sans-serif"> Matrix</text></g></g></svg>