<svg xmlns="http://www.w3.org/2000/svg" width="337.962890625" height="345.6502685546875" viewBox="-51.37408447265625 -91.95051574707031 337.962890625 345.6502685546875"><title>Neo4j Graph Visualization</title><desc>Created using Neo4j (http://www.neo4j.com/)</desc><g class="layer relationships"><g class="relationship" transform="translate(257.5888078623916 224.6997262890154) rotate(228.48109728306792)"><path class="outline" fill="#A5ABB6" stroke="none" d="M 25 0.5 L 28.04951442284382 0.5 L 28.04951442284382 -0.5 L 25 -0.5 Z M 74.8828464846114 0.5 L 77.93236090745522 0.5 L 77.93236090745522 3.5 L 84.93236090745522 0 L 77.93236090745522 -3.5 L 77.93236090745522 -0.5 L 74.8828464846114 -0.5 Z"/><text text-anchor="middle" pointer-events="none" font-size="8px" fill="#000000" x="51.46618045372761" y="3" transform="rotate(180 51.46618045372761 0)" font-family="sans-serif">DIRECTED</text></g><g class="relationship" transform="translate(88.50598744930261 129.54196814915755) rotate(311.7497752103252)"><path class="outline" fill="#A5ABB6" stroke="none" d="M 24.018736134675446,6.953439040707552 L 24.277555179777966,5.987513214418485 A 143.3687985007905 143.3687985007905 0 0 0 33.93681226015625,8.220827670353259 L 33.745366710412455,9.202330905948173 A 144.3687985007905 144.3687985007905 0 0 1 24.018736134675446,6.953439040707552 Z M 85.1440800748285,9.904080426729308 L 84.9795019276366,8.917716379601217 A 143.3687985007905 143.3687985007905 0 0 0 94.69613036324385,6.948941977016658 L 93.99907493682598,4.031046548372686 L 101.62072893448277,5.808795220148948 L 95.62553759846769,10.839469215208622 L 94.92848217204981,7.921573786564649 A 144.3687985007905 144.3687985007905 0 0 1 85.1440800748285,9.904080426729308"/><text text-anchor="middle" pointer-events="none" font-size="8px" fill="#000000" x="59.42006496601687" y="14.359279434092286" font-family="sans-serif">PRODUCED</text></g><g class="relationship" transform="translate(88.50598744930261 129.54196814915755) rotate(311.7497752103252)"><path class="outline" fill="#A5ABB6" stroke="none" d="M 24.018736134675446,-6.953439040707552 L 24.277555179777966,-5.987513214418485 A 143.3687985007905 143.3687985007905 0 0 1 41.69300127720712,-9.513999689328244 L 41.55565528816382,-10.504522823481977 A 144.3687985007905 144.3687985007905 0 0 0 24.018736134675446,-6.953439040707552 Z M 77.30115155097363,-10.992558091887673 L 77.19089905174238,-9.998654481665199 A 143.3687985007905 143.3687985007905 0 0 1 94.69613036324385,-6.948941977016658 L 93.99907493682598,-4.031046548372686 L 101.62072893448277,-5.808795220148948 L 95.62553759846769,-10.839469215208622 L 94.92848217204981,-7.921573786564649 A 144.3687985007905 144.3687985007905 0 0 0 77.30115155097363,-10.992558091887673"/><text text-anchor="middle" pointer-events="none" font-size="8px" fill="#000000" x="59.42006496601683" y="-8.359279434092286" font-family="sans-serif">WROTE</text></g><g class="relationship" transform="translate(88.50598744930261 129.54196814915755) rotate(367.6057723946089)"><path class="outline" fill="#A5ABB6" stroke="none" d="M 25 0.5 L 25.66645475379115 0.5 L 25.66645475379115 -0.5 L 25 -0.5 Z M 64.39978834143764 0.5 L 65.06624309522878 0.5 L 65.06624309522878 3.5 L 72.06624309522878 0 L 65.06624309522878 -3.5 L 65.06624309522878 -0.5 L 64.39978834143764 -0.5 Z"/><text text-anchor="middle" pointer-events="none" font-size="8px" fill="#000000" x="45.03312154761439" y="3" font-family="sans-serif">DIREC…</text></g><g class="relationship" transform="translate(88.50598744930261 129.54196814915755) rotate(228.58441024419017)"><path class="outline" fill="#A5ABB6" stroke="none" d="M 25 0.5 L 40.065626152283286 0.5 L 40.065626152283286 -0.5 L 25 -0.5 Z M 86.89895821405086 0.5 L 101.96458436633415 0.5 L 101.96458436633415 3.5 L 108.96458436633415 0 L 101.96458436633415 -3.5 L 101.96458436633415 -0.5 L 86.89895821405086 -0.5 Z"/><text text-anchor="middle" pointer-events="none" font-size="8px" fill="#000000" x="63.482292183167075" y="3" transform="rotate(180 63.482292183167075 0)" font-family="sans-serif">DIRECTED</text></g><g class="relationship" transform="translate(88.50598744930261 129.54196814915755) rotate(187.499835165217)"><path class="outline" fill="#A5ABB6" stroke="none" d="M 25 0.5 L 29.001739553216318 0.5 L 29.001739553216318 -0.5 L 25 -0.5 Z M 75.83507161498389 0.5 L 79.83681116820021 0.5 L 79.83681116820021 3.5 L 86.83681116820021 0 L 79.83681116820021 -3.5 L 79.83681116820021 -0.5 L 75.83507161498389 -0.5 Z"/><text text-anchor="middle" pointer-events="none" font-size="8px" fill="#000000" x="52.41840558410011" y="3" transform="rotate(180 52.41840558410011 0)" font-family="sans-serif">DIRECTED</text></g><g class="relationship" transform="translate(88.50598744930261 129.54196814915755) rotate(495.8892970665861)"><path class="outline" fill="#A5ABB6" stroke="none" d="M 25 0.5 L 27.4865679931524 0.5 L 27.4865679931524 -0.5 L 25 -0.5 Z M 55.586568374622125 0.5 L 58.073136367774524 0.5 L 58.073136367774524 3.5 L 65.07313636777452 0 L 58.073136367774524 -3.5 L 58.073136367774524 -0.5 L 55.586568374622125 -0.5 Z"/><text text-anchor="middle" pointer-events="none" font-size="8px" fill="#000000" x="41.53656818388726" y="3" transform="rotate(180 41.53656818388726 0)" font-family="sans-serif">DIR…</text></g><g class="relationship" transform="translate(81.71601010754472 69.95189689032692) rotate(339.23755802668506)"><path class="outline" fill="#A5ABB6" stroke="none" d="M 24.018736134675446,6.953439040707552 L 24.277555179777966,5.987513214418485 A 85.52939379158586 85.52939379158586 0 0 0 26.77893272738037,6.617485678749333 L 26.54935950569263,7.590777071850042 A 86.52939379158586 86.52939379158586 0 0 1 24.018736134675446,6.953439040707552 Z M 63.325217739224684,8.233249852396114 L 63.12978095423064,7.252533551383834 A 85.52939379158586 85.52939379158586 0 0 0 65.65163660131049,6.710316771160348 L 64.97687049321412,3.787186479954621 L 72.58473496547325,5.623050900803101 L 66.55132474543898,10.607823826101317 L 65.87655863734261,7.684693534895589 A 86.52939379158586 86.52939379158586 0 0 1 63.325217739224684,8.233249852396114"/><text text-anchor="middle" pointer-events="none" font-size="8px" fill="#000000" x="44.91149041575259" y="12.388731575683408" font-family="sans-serif">PROD…</text></g><g class="relationship" transform="translate(81.71601010754472 69.95189689032692) rotate(339.23755802668506)"><path class="outline" fill="#A5ABB6" stroke="none" d="M 24.018736134675446,-6.953439040707552 L 24.277555179777966,-5.987513214418485 A 85.52939379158586 85.52939379158586 0 0 1 27.327680963454704,-6.745014256589286 L 27.104523644087188,-7.719796699400348 A 86.52939379158586 86.52939379158586 0 0 0 24.018736134675446,-6.953439040707552 Z M 62.76588580896157,-8.34279927795707 L 62.57691309248521,-7.360816939812665 A 85.52939379158586 85.52939379158586 0 0 1 65.65163660131049,-6.710316771160348 L 64.97687049321412,-3.787186479954621 L 72.58473496547325,-5.623050900803101 L 66.55132474543898,-10.607823826101317 L 65.87655863734261,-7.684693534895589 A 86.52939379158586 86.52939379158586 0 0 0 62.76588580896157,-8.34279927795707"/><text text-anchor="middle" pointer-events="none" font-size="8px" fill="#000000" x="44.91149041575258" y="-6.388731575683408" font-family="sans-serif">WROTE</text></g><g class="relationship" transform="translate(81.71601010754472 69.95189689032692) rotate(395.1171986038927)"><path class="outline" fill="#A5ABB6" stroke="none" d="M 25 0.5 L 36.044909918361306 0.5 L 36.044909918361306 -0.5 L 25 -0.5 Z M 82.87824198012888 0.5 L 93.92315189849019 0.5 L 93.92315189849019 3.5 L 100.92315189849019 0 L 93.92315189849019 -3.5 L 93.92315189849019 -0.5 L 82.87824198012888 -0.5 Z"/><text text-anchor="middle" pointer-events="none" font-size="8px" fill="#000000" x="59.461575949245095" y="3" font-family="sans-serif">DIRECTED</text></g><g class="relationship" transform="translate(81.71601010754472 69.95189689032692) rotate(206.54223301201836)"><path class="outline" fill="#A5ABB6" stroke="none" d="M 25 0.5 L 25.66010686038569 0.5 L 25.66010686038569 -0.5 L 25 -0.5 Z M 58.81010647891596 0.5 L 59.47021333930165 0.5 L 59.47021333930165 3.5 L 66.47021333930165 0 L 59.47021333930165 -3.5 L 59.47021333930165 -0.5 L 58.81010647891596 -0.5 Z"/><text text-anchor="middle" pointer-events="none" font-size="8px" fill="#000000" x="42.235106669650825" y="3" transform="rotate(180 42.235106669650825 0)" font-family="sans-serif">DIRE…</text></g><g class="relationship" transform="translate(81.71601010754472 69.95189689032692) rotate(516.6236721910094)"><path class="outline" fill="#A5ABB6" stroke="none" d="M 25 0.5 L 29.782311833170752 0.5 L 29.782311833170752 -0.5 L 25 -0.5 Z M 76.61564389493833 0.5 L 81.39795572810908 0.5 L 81.39795572810908 3.5 L 88.39795572810908 0 L 81.39795572810908 -3.5 L 81.39795572810908 -0.5 L 76.61564389493833 -0.5 Z"/><text text-anchor="middle" pointer-events="none" font-size="8px" fill="#000000" x="53.19897786405454" y="3" transform="rotate(180 53.19897786405454 0)" font-family="sans-serif">DIRECTED</text></g><g class="relationship" transform="translate(81.71601010754472 69.95189689032692) rotate(475.3299601141951)"><path class="outline" fill="#A5ABB6" stroke="none" d="M 25 0.5 L 40.72950826860033 0.5 L 40.72950826860033 -0.5 L 25 -0.5 Z M 87.5628403303679 0.5 L 103.29234859896823 0.5 L 103.29234859896823 3.5 L 110.29234859896823 0 L 103.29234859896823 -3.5 L 103.29234859896823 -0.5 L 87.5628403303679 -0.5 Z"/><text text-anchor="middle" pointer-events="none" font-size="8px" fill="#000000" x="64.14617429948412" y="3" transform="rotate(180 64.14617429948412 0)" font-family="sans-serif">DIRECTED</text></g><g class="relationship" transform="translate(222.02966282087274 -62.95051687187921) rotate(476.7494648994799)"><path class="outline" fill="#A5ABB6" stroke="none" d="M 25 0.5 L 28.255866453656537 0.5 L 28.255866453656537 -0.5 L 25 -0.5 Z M 75.08919851542412 0.5 L 78.34506496908065 0.5 L 78.34506496908065 3.5 L 85.34506496908065 0 L 78.34506496908065 -3.5 L 78.34506496908065 -0.5 L 75.08919851542412 -0.5 Z"/><text text-anchor="middle" pointer-events="none" font-size="8px" fill="#000000" x="51.672532484540326" y="3" transform="rotate(180 51.672532484540326 0)" font-family="sans-serif">DIRECTED</text></g></g><g class="layer nodes"><g class="node" transform="translate(257.5888078623916,224.6997262890154)"><circle class="outline" cx="0" cy="0" r="25" fill="#F79767" stroke="#f36924" stroke-width="2px"/><text text-anchor="middle" pointer-events="none" font-family="sans-serif" dy="1.5625" font-size="25" fill="#FFFFFF"/><text text-anchor="middle" pointer-events="none" font-family="sans-serif" dy="1.5625" font-size="25" fill="#FFFFFF"/><text text-anchor="middle" pointer-events="none" x="0" y="0" font-size="10px" fill="#FFFFFF" font-family="sans-serif"> Tom</text><text text-anchor="middle" pointer-events="none" x="0" y="10" font-size="10px" fill="#FFFFFF" font-family="sans-serif"> Tykwer</text></g><g class="node" transform="translate(184.71826219429767,142.38929226804072)"><circle class="outline" cx="0" cy="0" r="25" fill="#57C7E3" stroke="#23b3d7" stroke-width="2px"/><text text-anchor="middle" pointer-events="none" font-family="sans-serif" dy="1.5625" font-size="25" fill="#2A2C34"/><text text-anchor="middle" pointer-events="none" font-family="sans-serif" dy="1.5625" font-size="25" fill="#2A2C34"/><text text-anchor="middle" pointer-events="none" x="0" y="0" font-size="10px" fill="#2A2C34" font-family="sans-serif"> Cloud</text><text text-anchor="middle" pointer-events="none" x="0" y="10" font-size="10px" fill="#2A2C34" font-family="sans-serif"> Atlas</text></g><g class="node" transform="translate(88.50598744930261,129.54196814915755)"><circle class="outline" cx="0" cy="0" r="25" fill="#F79767" stroke="#f36924" stroke-width="2px"/><text text-anchor="middle" pointer-events="none" font-family="sans-serif" dy="1.5625" font-size="25" fill="#FFFFFF"/><text text-anchor="middle" pointer-events="none" font-family="sans-serif" dy="1.5625" font-size="25" fill="#FFFFFF"/><text text-anchor="middle" pointer-events="none" x="0" y="0" font-size="10px" fill="#FFFFFF" font-family="sans-serif"> Lana</text><text text-anchor="middle" pointer-events="none" x="0" y="10" font-size="10px" fill="#FFFFFF" font-family="sans-serif"> Wacho…</text></g><g class="node" transform="translate(81.71601010754472,69.95189689032692)"><circle class="outline" cx="0" cy="0" r="25" fill="#F79767" stroke="#f36924" stroke-width="2px"/><text text-anchor="middle" pointer-events="none" font-family="sans-serif" dy="1.5625" font-size="25" fill="#FFFFFF"/><text text-anchor="middle" pointer-events="none" font-family="sans-serif" dy="1.5625" font-size="25" fill="#FFFFFF"/><text text-anchor="middle" pointer-events="none" x="0" y="0" font-size="10px" fill="#FFFFFF" font-family="sans-serif"> Lilly</text><text text-anchor="middle" pointer-events="none" x="0" y="10" font-size="10px" fill="#FFFFFF" font-family="sans-serif"> Wacho…</text></g><g class="node" transform="translate(222.02966282087274,-62.95051687187921)"><circle class="outline" cx="0" cy="0" r="25" fill="#F79767" stroke="#f36924" stroke-width="2px"/><text text-anchor="middle" pointer-events="none" font-family="sans-serif" dy="1.5625" font-size="25" fill="#FFFFFF"/><text text-anchor="middle" pointer-events="none" font-family="sans-serif" dy="1.5625" font-size="25" fill="#FFFFFF"/><text text-anchor="middle" pointer-events="none" x="0" y="0" font-size="10px" fill="#FFFFFF" font-family="sans-serif"> James</text><text text-anchor="middle" pointer-events="none" x="0" y="10" font-size="10px" fill="#FFFFFF" font-family="sans-serif"> Marshall</text></g><g class="node" transform="translate(172.36444135650083,35.585766495850486)"><circle class="outline" cx="0" cy="0" r="25" fill="#57C7E3" stroke="#23b3d7" stroke-width="2px"/><text text-anchor="middle" pointer-events="none" font-family="sans-serif" dy="1.5625" font-size="25" fill="#2A2C34"/><text text-anchor="middle" pointer-events="none" font-family="sans-serif" dy="1.5625" font-size="25" fill="#2A2C34"/><text text-anchor="middle" pointer-events="none" x="0" y="0" font-size="10px" fill="#2A2C34" font-family="sans-serif"> V for</text><text text-anchor="middle" pointer-events="none" x="0" y="10" font-size="10px" fill="#2A2C34" font-family="sans-serif"> Vendet…</text></g><g class="node" transform="translate(-0.11372056998421694,29.07775952229874)"><circle class="outline" cx="0" cy="0" r="25" fill="#57C7E3" stroke="#23b3d7" stroke-width="2px"/><text text-anchor="middle" pointer-events="none" font-family="sans-serif" dy="1.5625" font-size="25" fill="#2A2C34"/><text text-anchor="middle" pointer-events="none" font-family="sans-serif" dy="1.5625" font-size="25" fill="#2A2C34"/><text text-anchor="middle" pointer-events="none" font-family="sans-serif" dy="1.5625" font-size="25" fill="#2A2C34"/><text text-anchor="middle" pointer-events="none" x="0" y="-5" font-size="10px" fill="#2A2C34" font-family="sans-serif"> The</text><text text-anchor="middle" pointer-events="none" x="0" y="5" font-size="10px" fill="#2A2C34" font-family="sans-serif"> Matrix</text><text text-anchor="middle" pointer-events="none" x="0" y="15" font-size="10px" fill="#2A2C34" font-family="sans-serif"> Revol…</text></g><g class="node" transform="translate(-22.37408629145589,114.94465402923707)"><circle class="outline" cx="0" cy="0" r="25" fill="#57C7E3" stroke="#23b3d7" stroke-width="2px"/><text text-anchor="middle" pointer-events="none" font-family="sans-serif" dy="1.5625" font-size="25" fill="#2A2C34"/><text text-anchor="middle" pointer-events="none" font-family="sans-serif" dy="1.5625" font-size="25" fill="#2A2C34"/><text text-anchor="middle" pointer-events="none" font-family="sans-serif" dy="1.5625" font-size="25" fill="#2A2C34"/><text text-anchor="middle" pointer-events="none" x="0" y="-5" font-size="10px" fill="#2A2C34" font-family="sans-serif"> The</text><text text-anchor="middle" pointer-events="none" x="0" y="5" font-size="10px" fill="#2A2C34" font-family="sans-serif"> Matrix</text><text text-anchor="middle" pointer-events="none" x="0" y="15" font-size="10px" fill="#2A2C34" font-family="sans-serif"> Reloa…</text></g><g class="node" transform="translate(23.833809912991693,192.23709832558822)"><circle class="outline" cx="0" cy="0" r="25" fill="#57C7E3" stroke="#23b3d7" stroke-width="2px"/><text text-anchor="middle" pointer-events="none" font-family="sans-serif" dy="1.5625" font-size="25" fill="#2A2C34"/><text text-anchor="middle" pointer-events="none" font-family="sans-serif" dy="1.5625" font-size="25" fill="#2A2C34"/><text text-anchor="middle" pointer-events="none" x="0" y="0" font-size="10px" fill="#2A2C34" font-family="sans-serif"> The</text><text text-anchor="middle" pointer-events="none" x="0" y="10" font-size="10px" fill="#2A2C34" font-family="sans-serif"> Matrix</text></g></g></svg>