<svg xmlns="http://www.w3.org/2000/svg" width="379.68255615234375" height="371.05499267578125" viewBox="-92.22885131835938 -82.49415588378906 379.68255615234375 371.05499267578125"><title>Neo4j Graph Visualization</title><desc>Created using Neo4j (http://www.neo4j.com/)</desc><g class="layer relationships"><g class="relationship" transform="translate(150.97895291499015 259.56085519051703) rotate(306.3269277430885)"><path class="outline" fill="#A5ABB6" stroke="none" d="M 24.018736134675446,6.953439040707552 L 24.277555179777966,5.987513214418485 A 100.09996319567884 100.09996319567884 0 0 0 25.50786453627633,6.308812310786038 L 25.26133629845506,7.277947919437764 A 101.09996319567884 101.09996319567884 0 0 1 24.018736134675446,6.953439040707552 Z M 71.89735042168911,8.039402599896391 L 71.68259249630012,7.062735290377631 A 100.09996319567884 100.09996319567884 0 0 0 72.92273534588709,6.781772775738576 L 72.24129443768541,3.8601913052624792 L 79.85333226169827,5.678674235014006 L 73.83132322348933,10.677214736373372 L 73.14988231528766,7.755633265897275 A 101.09996319567884 101.09996319567884 0 0 1 71.89735042168911,8.039402599896391"/><text text-anchor="middle" pointer-events="none" font-size="8px" fill="#000000" x="48.542993940895734" y="12.884929913533924" font-family="sans-serif">DIRECTED</text></g><g class="relationship" transform="translate(150.97895291499015 259.56085519051703) rotate(306.3269277430885)"><path class="outline" fill="#A5ABB6" stroke="none" d="M 24.018736134675446,-6.953439040707552 L 24.277555179777966,-5.987513214418485 A 100.09996319567884 100.09996319567884 0 0 1 30.90280012377148,-7.52355664566241 L 30.710167366180794,-8.5048275668167 A 101.09996319567884 101.09996319567884 0 0 0 24.018736134675446,-6.953439040707552 Z M 66.411370448372,-9.087742910162802 L 66.25087545048476,-8.100706256510492 A 100.09996319567884 100.09996319567884 0 0 1 72.92273534588709,-6.781772775738576 L 72.24129443768541,-3.8601913052624792 L 79.85333226169827,-5.678674235014006 L 73.83132322348933,-10.677214736373372 L 73.14988231528766,-7.755633265897275 A 101.09996319567884 101.09996319567884 0 0 0 66.411370448372,-9.087742910162802"/><text text-anchor="middle" pointer-events="none" font-size="8px" fill="#000000" x="48.542993940895734" y="-6.884929913533924" font-family="sans-serif">WROTE</text></g><g class="relationship" transform="translate(258.45371740463725 81.90349623210501) rotate(476.02113984065096)"><path class="outline" fill="#A5ABB6" stroke="none" d="M 24.018736134675446,6.953439040707552 L 24.277555179777966,5.987513214418485 A 100.25913380598026 100.25913380598026 0 0 0 25.546686269663194,6.318693570169813 L 25.300525732984866,7.287922640195177 A 101.25913380598026 101.25913380598026 0 0 1 24.018736134675446,6.953439040707552 Z M 71.93751873230764,8.048848301419056 L 71.72310854073262,7.072104594119764 A 100.25913380598026 100.25913380598026 0 0 0 73.00236825246823,6.782503590532276 L 72.32085907918045,3.8609380433085585 L 79.9329393915382,5.679243110731428 L 73.91104715018525,10.6779243201639 L 73.22953797689748,7.756358772940182 A 101.25913380598026 101.25913380598026 0 0 1 71.93751873230764,8.048848301419056"/><text text-anchor="middle" pointer-events="none" font-size="8px" fill="#000000" x="48.58276880214785" y="12.890351518891308" transform="rotate(180 48.58276880214785 9.890351518891308)" font-family="sans-serif">DIRECTED</text></g><g class="relationship" transform="translate(258.45371740463725 81.90349623210501) rotate(476.02113984065096)"><path class="outline" fill="#A5ABB6" stroke="none" d="M 24.018736134675446,-6.953439040707552 L 24.277555179777966,-5.987513214418485 A 100.25913380598026 100.25913380598026 0 0 1 30.94207414563312,-7.531636533610353 L 30.749728036340642,-8.512963683056483 A 101.25913380598026 101.25913380598026 0 0 0 24.018736134675446,-6.953439040707552 Z M 66.45125219893204,-9.095467059303644 L 66.29102246819217,-8.1083873090367 A 100.25913380598026 100.25913380598026 0 0 1 73.00236825246823,-6.782503590532276 L 72.32085907918045,-3.8609380433085585 L 79.9329393915382,-5.679243110731428 L 73.91104715018525,-10.6779243201639 L 73.22953797689748,-7.756358772940182 A 101.25913380598026 101.25913380598026 0 0 0 66.45125219893204,-9.095467059303644"/><text text-anchor="middle" pointer-events="none" font-size="8px" fill="#000000" x="48.58276880214783" y="-6.890351518891308" transform="rotate(180 48.58276880214783 -9.890351518891308)" font-family="sans-serif">WROTE</text></g><g class="relationship" transform="translate(144.19067695858098 -53.494151803506746) rotate(535.0937156612841)"><path class="outline" fill="#A5ABB6" stroke="none" d="M 21.40063509461097,12.933012701892217 L 21.90063509461097,12.06698729810778 A 56.68156754956247 56.68156754956247 0 0 0 23.96550824275938,13.202577595276928 L 23.501937601321895,14.088637559611868 A 57.68156754956247 57.68156754956247 0 0 1 21.40063509461097,12.933012701892217 Z M 73.68892935563892,15.680139914499833 L 73.28243016564898,14.766488772905006 A 56.68156754956247 56.68156754956247 0 0 0 75.41510462536904,13.764008803116708 L 74.08273044214104,11.07611389522549 L 81.90892177431988,11.103118193566598 L 77.1916035363397,17.347868680304998 L 75.8592293531117,14.65997377241378 A 57.68156754956247 57.68156754956247 0 0 1 73.68892935563892,15.680139914499833"/><text text-anchor="middle" pointer-events="none" font-size="8px" fill="#000000" x="48.42901942351406" y="23.132147735807848" transform="rotate(180 48.42901942351406 20.132147735807848)" font-family="sans-serif">PRODUCED</text></g><g class="relationship" transform="translate(144.19067695858098 -53.494151803506746) rotate(535.0937156612841)"><path class="outline" fill="#A5ABB6" stroke="none" d="M 25 0.5 L 25.237356972489565 0.5 L 25.237356972489565 -0.5 L 25 -0.5 Z M 72.07068903425714 0.5 L 72.30804600674671 0.5 L 72.30804600674671 3.5 L 79.30804600674671 0 L 72.30804600674671 -3.5 L 72.30804600674671 -0.5 L 72.07068903425714 -0.5 Z"/><text text-anchor="middle" pointer-events="none" font-size="8px" fill="#000000" x="48.654023003373354" y="3" transform="rotate(180 48.654023003373354 0)" font-family="sans-serif">DIRECTED</text></g><g class="relationship" transform="translate(144.19067695858098 -53.494151803506746) rotate(535.0937156612841)"><path class="outline" fill="#A5ABB6" stroke="none" d="M 21.40063509461097,-12.933012701892217 L 21.90063509461097,-12.06698729810778 A 56.68156754956247 56.68156754956247 0 0 1 31.12471346050973,-16.339891525355682 L 30.787448521741645,-17.281301298556365 A 57.68156754956247 57.68156754956247 0 0 0 21.40063509461097,-12.933012701892217 Z M 66.21577198787412,-18.40478485983661 L 65.93883164458757,-17.443897745623744 A 56.68156754956247 56.68156754956247 0 0 1 75.41510462536904,-13.764008803116708 L 74.08273044214104,-11.07611389522549 L 81.90892177431988,-11.103118193566598 L 77.1916035363397,-17.347868680304998 L 75.8592293531117,-14.65997377241378 A 57.68156754956247 57.68156754956247 0 0 0 66.21577198787412,-18.40478485983661"/><text text-anchor="middle" pointer-events="none" font-size="8px" fill="#000000" x="48.429019423514056" y="-17.132147735807848" transform="rotate(180 48.429019423514056 -20.132147735807848)" font-family="sans-serif">WROTE</text></g><g class="relationship" transform="translate(-63.228853553219075 97.85968706444244) rotate(432.87121161585634)"><path class="outline" fill="#A5ABB6" stroke="none" d="M 21.40063509461097,12.933012701892217 L 21.90063509461097,12.06698729810778 A 57.57753979578723 57.57753979578723 0 0 0 31.545271296067547,16.505080774058932 L 31.212778213446505,17.448186468034514 A 58.57753979578723 58.57753979578723 0 0 1 21.40063509461097,12.933012701892217 Z M 66.65438846999592,18.563356260837082 L 66.38184401809254,17.60121306892816 A 57.57753979578723 57.57753979578723 0 0 0 76.28641472125251,13.7782351268218 L 74.95271707702176,11.090996656984531 L 82.7789207582446,11.114147035256256 L 78.06467824689352,17.36121975327149 L 76.73098060266277,14.673981283434221 A 58.57753979578723 58.57753979578723 0 0 1 66.65438846999592,18.563356260837082"/><text text-anchor="middle" pointer-events="none" font-size="8px" fill="#000000" x="48.862899917213426" y="23.25218657328709" font-family="sans-serif">WROTE</text></g><g class="relationship" transform="translate(-63.228853553219075 97.85968706444244) rotate(432.87121161585634)"><path class="outline" fill="#A5ABB6" stroke="none" d="M 25 0.5 L 25.669621305893784 0.5 L 25.669621305893784 -0.5 L 25 -0.5 Z M 72.50295336766136 0.5 L 73.17257467355515 0.5 L 73.17257467355515 3.5 L 80.17257467355515 0 L 73.17257467355515 -3.5 L 73.17257467355515 -0.5 L 72.50295336766136 -0.5 Z"/><text text-anchor="middle" pointer-events="none" font-size="8px" fill="#000000" x="49.08628733677757" y="3" font-family="sans-serif">DIRECTED</text></g><g class="relationship" transform="translate(-63.228853553219075 97.85968706444244) rotate(432.87121161585634)"><path class="outline" fill="#A5ABB6" stroke="none" d="M 21.40063509461097,-12.933012701892217 L 21.90063509461097,-12.06698729810778 A 57.57753979578723 57.57753979578723 0 0 1 24.36582124167767,-13.411206847870126 L 23.9086363073406,-14.30057850011412 A 58.57753979578723 58.57753979578723 0 0 0 21.40063509461097,-12.933012701892217 Z M 74.14196478900143,-15.881169509077246 L 73.74159700506485,-14.96481497201983 A 57.57753979578723 57.57753979578723 0 0 1 76.28641472125251,-13.7782351268218 L 74.95271707702176,-11.090996656984531 L 82.7789207582446,-11.114147035256256 L 78.06467824689352,-17.36121975327149 L 76.73098060266277,-14.673981283434221 A 58.57753979578723 58.57753979578723 0 0 0 74.14196478900143,-15.881169509077246"/><text text-anchor="middle" pointer-events="none" font-size="8px" fill="#000000" x="48.86289991721342" y="-17.25218657328709" font-family="sans-serif">PRODUCED</text></g></g><g class="layer nodes"><g class="node" transform="translate(150.97895291499015,259.56085519051703)"><circle class="outline" cx="0" cy="0" r="25" fill="#F79767" stroke="#f36924" stroke-width="2px"/><text text-anchor="middle" pointer-events="none" font-family="sans-serif" dy="1.5625" font-size="25" fill="#FFFFFF"/><text text-anchor="middle" pointer-events="none" font-family="sans-serif" dy="1.5625" font-size="25" fill="#FFFFFF"/><text text-anchor="middle" pointer-events="none" x="0" y="0" font-size="10px" fill="#FFFFFF" font-family="sans-serif"> Lilly</text><text text-anchor="middle" pointer-events="none" x="0" y="10" font-size="10px" fill="#FFFFFF" font-family="sans-serif"> Wacho…</text></g><g class="node" transform="translate(212.70609488944837,175.61225460209747)"><circle class="outline" cx="0" cy="0" r="25" fill="#57C7E3" stroke="#23b3d7" stroke-width="2px"/><text text-anchor="middle" pointer-events="none" font-family="sans-serif" dy="1.5625" font-size="25" fill="#2A2C34"/><text text-anchor="middle" pointer-events="none" font-family="sans-serif" dy="1.5625" font-size="25" fill="#2A2C34"/><text text-anchor="middle" pointer-events="none" x="0" y="0" font-size="10px" fill="#2A2C34" font-family="sans-serif"> Speed</text><text text-anchor="middle" pointer-events="none" x="0" y="10" font-size="10px" fill="#2A2C34" font-family="sans-serif"> Racer</text></g><g class="node" transform="translate(258.45371740463725,81.90349623210501)"><circle class="outline" cx="0" cy="0" r="25" fill="#F79767" stroke="#f36924" stroke-width="2px"/><text text-anchor="middle" pointer-events="none" font-family="sans-serif" dy="1.5625" font-size="25" fill="#FFFFFF"/><text text-anchor="middle" pointer-events="none" font-family="sans-serif" dy="1.5625" font-size="25" fill="#FFFFFF"/><text text-anchor="middle" pointer-events="none" x="0" y="0" font-size="10px" fill="#FFFFFF" font-family="sans-serif"> Lana</text><text text-anchor="middle" pointer-events="none" x="0" y="10" font-size="10px" fill="#FFFFFF" font-family="sans-serif"> Wacho…</text></g><g class="node" transform="translate(144.19067695858098,-53.494151803506746)"><circle class="outline" cx="0" cy="0" r="25" fill="#F79767" stroke="#f36924" stroke-width="2px"/><text text-anchor="middle" pointer-events="none" font-family="sans-serif" dy="1.5625" font-size="25" fill="#FFFFFF"/><text text-anchor="middle" pointer-events="none" x="0" y="5" font-size="10px" fill="#FFFFFF" font-family="sans-serif"> Cameron</text></g><g class="node" transform="translate(40.26482382428742,-44.573080564309535)"><circle class="outline" cx="0" cy="0" r="25" fill="#57C7E3" stroke="#23b3d7" stroke-width="2px"/><text text-anchor="middle" pointer-events="none" font-family="sans-serif" dy="1.5625" font-size="25" fill="#2A2C34"/><text text-anchor="middle" pointer-events="none" font-family="sans-serif" dy="1.5625" font-size="25" fill="#2A2C34"/><text text-anchor="middle" pointer-events="none" x="0" y="0" font-size="10px" fill="#2A2C34" font-family="sans-serif"> Jerry</text><text text-anchor="middle" pointer-events="none" x="0" y="10" font-size="10px" fill="#2A2C34" font-family="sans-serif"> Maguire</text></g><g class="node" transform="translate(-63.228853553219075,97.85968706444244)"><circle class="outline" cx="0" cy="0" r="25" fill="#F79767" stroke="#f36924" stroke-width="2px"/><text text-anchor="middle" pointer-events="none" font-family="sans-serif" dy="1.5625" font-size="25" fill="#FFFFFF"/><text text-anchor="middle" pointer-events="none" font-family="sans-serif" dy="1.5625" font-size="25" fill="#FFFFFF"/><text text-anchor="middle" pointer-events="none" x="0" y="0" font-size="10px" fill="#FFFFFF" font-family="sans-serif"> Nancy</text><text text-anchor="middle" pointer-events="none" x="0" y="10" font-size="10px" fill="#FFFFFF" font-family="sans-serif"> Meyers</text></g><g class="node" transform="translate(-32.2533712984064,198.36734827763712)"><circle class="outline" cx="0" cy="0" r="25" fill="#57C7E3" stroke="#23b3d7" stroke-width="2px"/><text text-anchor="middle" pointer-events="none" font-family="sans-serif" dy="1.5625" font-size="25" fill="#2A2C34"/><text text-anchor="middle" pointer-events="none" x="0" y="5" font-size="10px" fill="#2A2C34" font-family="sans-serif"> Someth…</text></g></g></svg>