<svg xmlns="http://www.w3.org/2000/svg" width="570.5682373046875" height="573.2449951171875" viewBox="-147.68603515625 -149.51129150390625 570.5682373046875 573.2449951171875"><title>Neo4j Graph Visualization</title><desc>Created using Neo4j (http://www.neo4j.com/)</desc><g class="layer relationships"><g class="relationship" transform="translate(8.079623613423006 381.3184185670978) rotate(367.06110714956094)"><path class="outline" fill="#A5ABB6" stroke="none" d="M 25 0.5 L 28.382426835044534 0.5 L 28.382426835044534 -0.5 L 25 -0.5 Z M 73.74909172151914 0.5 L 77.13151855656368 0.5 L 77.13151855656368 3.5 L 84.13151855656368 0 L 77.13151855656368 -3.5 L 77.13151855656368 -0.5 L 73.74909172151914 -0.5 Z"/><text text-anchor="middle" pointer-events="none" font-size="8px" fill="#000000" x="51.06575927828184" y="3" font-family="sans-serif">ACTED_IN</text></g><g class="relationship" transform="translate(225.29449895168824 381.3689508706494) rotate(533.0040558070989)"><path class="outline" fill="#A5ABB6" stroke="none" d="M 25 0.5 L 28.68066867508076 0.5 L 28.68066867508076 -0.5 L 25 -0.5 Z M 74.04733356155538 0.5 L 77.72800223663613 0.5 L 77.72800223663613 3.5 L 84.72800223663613 0 L 77.72800223663613 -3.5 L 77.72800223663613 -0.5 L 74.04733356155538 -0.5 Z"/><text text-anchor="middle" pointer-events="none" font-size="8px" fill="#000000" x="51.364001118318065" y="3" transform="rotate(180 51.364001118318065 0)" font-family="sans-serif">ACTED_IN</text></g><g class="relationship" transform="translate(141.44394442061386 289.41070940464516) rotate(463.3840496484026)"><path class="outline" fill="#A5ABB6" stroke="none" d="M 25 0.5 L 27.94837114875238 0.5 L 27.94837114875238 -0.5 L 25 -0.5 Z M 73.315036035227 0.5 L 76.26340718397937 0.5 L 76.26340718397937 3.5 L 83.26340718397937 0 L 76.26340718397937 -3.5 L 76.26340718397937 -0.5 L 73.315036035227 -0.5 Z"/><text text-anchor="middle" pointer-events="none" font-size="8px" fill="#000000" x="50.631703591989684" y="3" transform="rotate(180 50.631703591989684 0)" font-family="sans-serif">ACTED_IN</text></g><g class="relationship" transform="translate(393.88219927770706 101.36291030459978) rotate(232.99564035921742)"><path class="outline" fill="#A5ABB6" stroke="none" d="M 25 0.5 L 28.455904548669395 0.5 L 28.455904548669395 -0.5 L 25 -0.5 Z M 73.822569435144 0.5 L 77.2784739838134 0.5 L 77.2784739838134 3.5 L 84.2784739838134 0 L 77.2784739838134 -3.5 L 77.2784739838134 -0.5 L 73.822569435144 -0.5 Z"/><text text-anchor="middle" pointer-events="none" font-size="8px" fill="#000000" x="51.1392369919067" y="3" transform="rotate(180 51.1392369919067 0)" font-family="sans-serif">ACTED_IN</text></g><g class="relationship" transform="translate(354.99975691420514 -90.4305381195832) rotate(464.4268524247)"><path class="outline" fill="#A5ABB6" stroke="none" d="M 25 0.5 L 27.78073479475988 0.5 L 27.78073479475988 -0.5 L 25 -0.5 Z M 73.14739968123449 0.5 L 75.92813447599437 0.5 L 75.92813447599437 3.5 L 82.92813447599437 0 L 75.92813447599437 -3.5 L 75.92813447599437 -0.5 L 73.14739968123449 -0.5 Z"/><text text-anchor="middle" pointer-events="none" font-size="8px" fill="#000000" x="50.464067237997185" y="3" transform="rotate(180 50.464067237997185 0)" font-family="sans-serif">ACTED_IN</text></g><g class="relationship" transform="translate(264.0946156332888 101.29663197374413) rotate(306.28249632290726)"><path class="outline" fill="#A5ABB6" stroke="none" d="M 25 0.5 L 27.905119620745985 0.5 L 27.905119620745985 -0.5 L 25 -0.5 Z M 73.27178450722059 0.5 L 76.17690412796658 0.5 L 76.17690412796658 3.5 L 83.17690412796658 0 L 76.17690412796658 -3.5 L 76.17690412796658 -0.5 L 73.27178450722059 -0.5 Z"/><text text-anchor="middle" pointer-events="none" font-size="8px" fill="#000000" x="50.58845206398329" y="3" font-family="sans-serif">ACTED_IN</text></g><g class="relationship" transform="translate(243.7738195419263 -57.52961041313756) rotate(400.3400703362043)"><path class="outline" fill="#A5ABB6" stroke="none" d="M 25 0.5 L 29.13978693210492 0.5 L 29.13978693210492 -0.5 L 25 -0.5 Z M 74.50645181857954 0.5 L 78.64623875068445 0.5 L 78.64623875068445 3.5 L 85.64623875068445 0 L 78.64623875068445 -3.5 L 78.64623875068445 -0.5 L 74.50645181857954 -0.5 Z"/><text text-anchor="middle" pointer-events="none" font-size="8px" fill="#000000" x="51.82311937534222" y="3" font-family="sans-serif">ACTED_IN</text></g><g class="relationship" transform="translate(6.446841510682883 -8.495518252030616) rotate(252.96035504587155)"><path class="outline" fill="#A5ABB6" stroke="none" d="M 25 0.5 L 32.396060639046944 0.5 L 32.396060639046944 -0.5 L 25 -0.5 Z M 77.76272552552155 0.5 L 85.1587861645685 0.5 L 85.1587861645685 3.5 L 92.1587861645685 0 L 85.1587861645685 -3.5 L 85.1587861645685 -0.5 L 77.76272552552155 -0.5 Z"/><text text-anchor="middle" pointer-events="none" font-size="8px" fill="#000000" x="55.07939308228425" y="3" transform="rotate(180 55.07939308228425 0)" font-family="sans-serif">ACTED_IN</text></g><g class="relationship" transform="translate(6.446841510682883 -8.495518252030616) rotate(510.3644182799896)"><path class="outline" fill="#A5ABB6" stroke="none" d="M 25 0.5 L 43.43434649665686 0.5 L 43.43434649665686 -0.5 L 25 -0.5 Z M 88.80101138313147 0.5 L 107.23535787978832 0.5 L 107.23535787978832 3.5 L 114.23535787978832 0 L 107.23535787978832 -3.5 L 107.23535787978832 -0.5 L 88.80101138313147 -0.5 Z"/><text text-anchor="middle" pointer-events="none" font-size="8px" fill="#000000" x="66.11767893989416" y="3" transform="rotate(180 66.11767893989416 0)" font-family="sans-serif">ACTED_IN</text></g><g class="relationship" transform="translate(6.446841510682883 -8.495518252030616) rotate(478.3426029174633)"><path class="outline" fill="#A5ABB6" stroke="none" d="M 25 0.5 L 25.22312420498912 0.5 L 25.22312420498912 -0.5 L 25 -0.5 Z M 66.23979061734263 0.5 L 66.46291482233175 0.5 L 66.46291482233175 3.5 L 73.46291482233175 0 L 66.46291482233175 -3.5 L 66.46291482233175 -0.5 L 66.23979061734263 -0.5 Z"/><text text-anchor="middle" pointer-events="none" font-size="8px" fill="#000000" x="45.73145741116588" y="3" transform="rotate(180 45.73145741116588 0)" font-family="sans-serif">ACTED…</text></g><g class="relationship" transform="translate(-56.32216015202586 -26.222512195036625) rotate(286.7833528693326)"><path class="outline" fill="#A5ABB6" stroke="none" d="M 25 0.5 L 25.23359489309925 0.5 L 25.23359489309925 -0.5 L 25 -0.5 Z M 66.25026130545277 0.5 L 66.48385619855202 0.5 L 66.48385619855202 3.5 L 73.48385619855202 0 L 66.48385619855202 -3.5 L 66.48385619855202 -0.5 L 66.25026130545277 -0.5 Z"/><text text-anchor="middle" pointer-events="none" font-size="8px" fill="#000000" x="45.74192809927601" y="3" font-family="sans-serif">ACTED…</text></g><g class="relationship" transform="translate(-56.32216015202586 -26.222512195036625) rotate(483.9345536578658)"><path class="outline" fill="#A5ABB6" stroke="none" d="M 25 0.5 L 25.991468472921163 0.5 L 25.991468472921163 -0.5 L 25 -0.5 Z M 71.35813335939577 0.5 L 72.34960183231694 0.5 L 72.34960183231694 3.5 L 79.34960183231694 0 L 72.34960183231694 -3.5 L 72.34960183231694 -0.5 L 71.35813335939577 -0.5 Z"/><text text-anchor="middle" pointer-events="none" font-size="8px" fill="#000000" x="48.67480091615847" y="3" transform="rotate(180 48.67480091615847 0)" font-family="sans-serif">ACTED_IN</text></g><g class="relationship" transform="translate(-56.32216015202586 -26.222512195036625) rotate(441.2726246411166)"><path class="outline" fill="#A5ABB6" stroke="none" d="M 25 0.5 L 26.62138032551355 0.5 L 26.62138032551355 -0.5 L 25 -0.5 Z M 71.98804521198815 0.5 L 73.6094255375017 0.5 L 73.6094255375017 3.5 L 80.6094255375017 0 L 73.6094255375017 -3.5 L 73.6094255375017 -0.5 L 71.98804521198815 -0.5 Z"/><text text-anchor="middle" pointer-events="none" font-size="8px" fill="#000000" x="49.30471276875085" y="3" font-family="sans-serif">ACTED_IN</text></g><g class="relationship" transform="translate(-118.68602793980145 -35.24788222838063) rotate(316.8016146445134)"><path class="outline" fill="#A5ABB6" stroke="none" d="M 25 0.5 L 36.095778976569484 0.5 L 36.095778976569484 -0.5 L 25 -0.5 Z M 81.46244386304409 0.5 L 92.55822283961358 0.5 L 92.55822283961358 3.5 L 99.55822283961358 0 L 92.55822283961358 -3.5 L 92.55822283961358 -0.5 L 81.46244386304409 -0.5 Z"/><text text-anchor="middle" pointer-events="none" font-size="8px" fill="#000000" x="58.77911141980679" y="3" font-family="sans-serif">ACTED_IN</text></g><g class="relationship" transform="translate(-118.68602793980145 -35.24788222838063) rotate(447.53762374821395)"><path class="outline" fill="#A5ABB6" stroke="none" d="M 25 0.5 L 26.92003080139638 0.5 L 26.92003080139638 -0.5 L 25 -0.5 Z M 61.770031182866106 0.5 L 63.690061984262485 0.5 L 63.690061984262485 3.5 L 70.69006198426248 0 L 63.690061984262485 -3.5 L 63.690061984262485 -0.5 L 61.770031182866106 -0.5 Z"/><text text-anchor="middle" pointer-events="none" font-size="8px" fill="#000000" x="44.34503099213124" y="3" font-family="sans-serif">ACTE…</text></g><g class="relationship" transform="translate(-118.68602793980145 -35.24788222838063) rotate(415.3484759092149)"><path class="outline" fill="#A5ABB6" stroke="none" d="M 25 0.5 L 42.74962174259417 0.5 L 42.74962174259417 -0.5 L 25 -0.5 Z M 88.11628662906878 0.5 L 105.86590837166295 0.5 L 105.86590837166295 3.5 L 112.86590837166295 0 L 105.86590837166295 -3.5 L 105.86590837166295 -0.5 L 88.11628662906878 -0.5 Z"/><text text-anchor="middle" pointer-events="none" font-size="8px" fill="#000000" x="65.43295418583148" y="3" font-family="sans-serif">ACTED_IN</text></g><g class="relationship" transform="translate(-61.138827826093525 189.98551702044455) rotate(280.55757152876873)"><path class="outline" fill="#A5ABB6" stroke="none" d="M 25 0.5 L 30.6901630208854 0.5 L 30.6901630208854 -0.5 L 25 -0.5 Z M 76.05682790736 0.5 L 81.74699092824541 0.5 L 81.74699092824541 3.5 L 88.74699092824541 0 L 81.74699092824541 -3.5 L 81.74699092824541 -0.5 L 76.05682790736 -0.5 Z"/><text text-anchor="middle" pointer-events="none" font-size="8px" fill="#000000" x="53.373495464122705" y="3" font-family="sans-serif">ACTED_IN</text></g></g><g class="layer nodes"><g class="node" transform="translate(8.079623613423006,381.3184185670978)"><circle class="outline" cx="0" cy="0" r="25" fill="#F79767" stroke="#f36924" stroke-width="2px"/><text text-anchor="middle" pointer-events="none" font-family="sans-serif" dy="1.5625" font-size="25" fill="#FFFFFF"/><text text-anchor="middle" pointer-events="none" font-family="sans-serif" dy="1.5625" font-size="25" fill="#FFFFFF"/><text text-anchor="middle" pointer-events="none" x="0" y="0" font-size="10px" fill="#FFFFFF" font-family="sans-serif"> Tom</text><text text-anchor="middle" pointer-events="none" x="0" y="10" font-size="10px" fill="#FFFFFF" font-family="sans-serif"> Hanks</text></g><g class="node" transform="translate(116.3834462770678,394.7337209827492)"><circle class="outline" cx="0" cy="0" r="25" fill="#57C7E3" stroke="#23b3d7" stroke-width="2px"/><text text-anchor="middle" pointer-events="none" font-family="sans-serif" dy="1.5625" font-size="25" fill="#2A2C34"/><text text-anchor="middle" pointer-events="none" font-family="sans-serif" dy="1.5625" font-size="25" fill="#2A2C34"/><text text-anchor="middle" pointer-events="none" x="0" y="0" font-size="10px" fill="#2A2C34" font-family="sans-serif"> Cloud</text><text text-anchor="middle" pointer-events="none" x="0" y="10" font-size="10px" fill="#2A2C34" font-family="sans-serif"> Atlas</text></g><g class="node" transform="translate(225.29449895168824,381.3689508706494)"><circle class="outline" cx="0" cy="0" r="25" fill="#F79767" stroke="#f36924" stroke-width="2px"/><text text-anchor="middle" pointer-events="none" font-family="sans-serif" dy="1.5625" font-size="25" fill="#FFFFFF"/><text text-anchor="middle" pointer-events="none" font-family="sans-serif" dy="1.5625" font-size="25" fill="#FFFFFF"/><text text-anchor="middle" pointer-events="none" x="0" y="0" font-size="10px" fill="#FFFFFF" font-family="sans-serif"> Jim</text><text text-anchor="middle" pointer-events="none" x="0" y="10" font-size="10px" fill="#FFFFFF" font-family="sans-serif"> Broadb…</text></g><g class="node" transform="translate(141.44394442061386,289.41070940464516)"><circle class="outline" cx="0" cy="0" r="25" fill="#F79767" stroke="#f36924" stroke-width="2px"/><text text-anchor="middle" pointer-events="none" font-family="sans-serif" dy="1.5625" font-size="25" fill="#FFFFFF"/><text text-anchor="middle" pointer-events="none" font-family="sans-serif" dy="1.5625" font-size="25" fill="#FFFFFF"/><text text-anchor="middle" pointer-events="none" x="0" y="0" font-size="10px" fill="#FFFFFF" font-family="sans-serif"> Halle</text><text text-anchor="middle" pointer-events="none" x="0" y="10" font-size="10px" fill="#FFFFFF" font-family="sans-serif"> Berry</text></g><g class="node" transform="translate(393.88219927770706,101.36291030459978)"><circle class="outline" cx="0" cy="0" r="25" fill="#F79767" stroke="#f36924" stroke-width="2px"/><text text-anchor="middle" pointer-events="none" font-family="sans-serif" dy="1.5625" font-size="25" fill="#FFFFFF"/><text text-anchor="middle" pointer-events="none" font-family="sans-serif" dy="1.5625" font-size="25" fill="#FFFFFF"/><text text-anchor="middle" pointer-events="none" x="0" y="0" font-size="10px" fill="#FFFFFF" font-family="sans-serif"> John</text><text text-anchor="middle" pointer-events="none" x="0" y="10" font-size="10px" fill="#FFFFFF" font-family="sans-serif"> Hurt</text></g><g class="node" transform="translate(328.1101314564764,14.094244847000326)"><circle class="outline" cx="0" cy="0" r="25" fill="#57C7E3" stroke="#23b3d7" stroke-width="2px"/><text text-anchor="middle" pointer-events="none" font-family="sans-serif" dy="1.5625" font-size="25" fill="#2A2C34"/><text text-anchor="middle" pointer-events="none" font-family="sans-serif" dy="1.5625" font-size="25" fill="#2A2C34"/><text text-anchor="middle" pointer-events="none" x="0" y="0" font-size="10px" fill="#2A2C34" font-family="sans-serif"> V for</text><text text-anchor="middle" pointer-events="none" x="0" y="10" font-size="10px" fill="#2A2C34" font-family="sans-serif"> Vendet…</text></g><g class="node" transform="translate(354.99975691420514,-90.4305381195832)"><circle class="outline" cx="0" cy="0" r="25" fill="#F79767" stroke="#f36924" stroke-width="2px"/><text text-anchor="middle" pointer-events="none" font-family="sans-serif" dy="1.5625" font-size="25" fill="#FFFFFF"/><text text-anchor="middle" pointer-events="none" font-family="sans-serif" dy="1.5625" font-size="25" fill="#FFFFFF"/><text text-anchor="middle" pointer-events="none" x="0" y="0" font-size="10px" fill="#FFFFFF" font-family="sans-serif"> Stephen</text><text text-anchor="middle" pointer-events="none" x="0" y="10" font-size="10px" fill="#FFFFFF" font-family="sans-serif"> Rea</text></g><g class="node" transform="translate(264.0946156332888,101.29663197374413)"><circle class="outline" cx="0" cy="0" r="25" fill="#F79767" stroke="#f36924" stroke-width="2px"/><text text-anchor="middle" pointer-events="none" font-family="sans-serif" dy="1.5625" font-size="25" fill="#FFFFFF"/><text text-anchor="middle" pointer-events="none" font-family="sans-serif" dy="1.5625" font-size="25" fill="#FFFFFF"/><text text-anchor="middle" pointer-events="none" x="0" y="0" font-size="10px" fill="#FFFFFF" font-family="sans-serif"> Natalie</text><text text-anchor="middle" pointer-events="none" x="0" y="10" font-size="10px" fill="#FFFFFF" font-family="sans-serif"> Portman</text></g><g class="node" transform="translate(243.7738195419263,-57.52961041313756)"><circle class="outline" cx="0" cy="0" r="25" fill="#F79767" stroke="#f36924" stroke-width="2px"/><text text-anchor="middle" pointer-events="none" font-family="sans-serif" dy="1.5625" font-size="25" fill="#FFFFFF"/><text text-anchor="middle" pointer-events="none" font-family="sans-serif" dy="1.5625" font-size="25" fill="#FFFFFF"/><text text-anchor="middle" pointer-events="none" x="0" y="0" font-size="10px" fill="#FFFFFF" font-family="sans-serif"> Ben</text><text text-anchor="middle" pointer-events="none" x="0" y="10" font-size="10px" fill="#FFFFFF" font-family="sans-serif"> Miles</text></g><g class="node" transform="translate(6.446841510682883,-8.495518252030616)"><circle class="outline" cx="0" cy="0" r="25" fill="#F79767" stroke="#f36924" stroke-width="2px"/><text text-anchor="middle" pointer-events="none" font-family="sans-serif" dy="1.5625" font-size="25" fill="#FFFFFF"/><text text-anchor="middle" pointer-events="none" x="0" y="5" font-size="10px" fill="#FFFFFF" font-family="sans-serif"> Lauren…</text></g><g class="node" transform="translate(-27.88458836976583,-120.51129436378606)"><circle class="outline" cx="0" cy="0" r="25" fill="#57C7E3" stroke="#23b3d7" stroke-width="2px"/><text text-anchor="middle" pointer-events="none" font-family="sans-serif" dy="1.5625" font-size="25" fill="#2A2C34"/><text text-anchor="middle" pointer-events="none" font-family="sans-serif" dy="1.5625" font-size="25" fill="#2A2C34"/><text text-anchor="middle" pointer-events="none" font-family="sans-serif" dy="1.5625" font-size="25" fill="#2A2C34"/><text text-anchor="middle" pointer-events="none" x="0" y="-5" font-size="10px" fill="#2A2C34" font-family="sans-serif"> The</text><text text-anchor="middle" pointer-events="none" x="0" y="5" font-size="10px" fill="#2A2C34" font-family="sans-serif"> Matrix</text><text text-anchor="middle" pointer-events="none" x="0" y="15" font-size="10px" fill="#2A2C34" font-family="sans-serif"> Revol…</text></g><g class="node" transform="translate(-56.32216015202586,-26.222512195036625)"><circle class="outline" cx="0" cy="0" r="25" fill="#F79767" stroke="#f36924" stroke-width="2px"/><text text-anchor="middle" pointer-events="none" font-family="sans-serif" dy="1.5625" font-size="25" fill="#FFFFFF"/><text text-anchor="middle" pointer-events="none" x="0" y="5" font-size="10px" fill="#FFFFFF" font-family="sans-serif"> Carrie-…</text></g><g class="node" transform="translate(-118.68602793980145,-35.24788222838063)"><circle class="outline" cx="0" cy="0" r="25" fill="#F79767" stroke="#f36924" stroke-width="2px"/><text text-anchor="middle" pointer-events="none" font-family="sans-serif" dy="1.5625" font-size="25" fill="#FFFFFF"/><text text-anchor="middle" pointer-events="none" font-family="sans-serif" dy="1.5625" font-size="25" fill="#FFFFFF"/><text text-anchor="middle" pointer-events="none" x="0" y="0" font-size="10px" fill="#FFFFFF" font-family="sans-serif"> Keanu</text><text text-anchor="middle" pointer-events="none" x="0" y="10" font-size="10px" fill="#FFFFFF" font-family="sans-serif"> Reeves</text></g><g class="node" transform="translate(-114.57486282068021,60.353824262221906)"><circle class="outline" cx="0" cy="0" r="25" fill="#57C7E3" stroke="#23b3d7" stroke-width="2px"/><text text-anchor="middle" pointer-events="none" font-family="sans-serif" dy="1.5625" font-size="25" fill="#2A2C34"/><text text-anchor="middle" pointer-events="none" font-family="sans-serif" dy="1.5625" font-size="25" fill="#2A2C34"/><text text-anchor="middle" pointer-events="none" font-family="sans-serif" dy="1.5625" font-size="25" fill="#2A2C34"/><text text-anchor="middle" pointer-events="none" x="0" y="-5" font-size="10px" fill="#2A2C34" font-family="sans-serif"> The</text><text text-anchor="middle" pointer-events="none" x="0" y="5" font-size="10px" fill="#2A2C34" font-family="sans-serif"> Matrix</text><text text-anchor="middle" pointer-events="none" x="0" y="15" font-size="10px" fill="#2A2C34" font-family="sans-serif"> Reloa…</text></g><g class="node" transform="translate(-61.138827826093525,189.98551702044455)"><circle class="outline" cx="0" cy="0" r="25" fill="#F79767" stroke="#f36924" stroke-width="2px"/><text text-anchor="middle" pointer-events="none" font-family="sans-serif" dy="1.5625" font-size="25" fill="#FFFFFF"/><text text-anchor="middle" pointer-events="none" font-family="sans-serif" dy="1.5625" font-size="25" fill="#FFFFFF"/><text text-anchor="middle" pointer-events="none" x="0" y="0" font-size="10px" fill="#FFFFFF" font-family="sans-serif"> Emil</text><text text-anchor="middle" pointer-events="none" x="0" y="10" font-size="10px" fill="#FFFFFF" font-family="sans-serif"> Eifrem</text></g><g class="node" transform="translate(-40.29771509036561,78.16411493136759)"><circle class="outline" cx="0" cy="0" r="25" fill="#57C7E3" stroke="#23b3d7" stroke-width="2px"/><text text-anchor="middle" pointer-events="none" font-family="sans-serif" dy="1.5625" font-size="25" fill="#2A2C34"/><text text-anchor="middle" pointer-events="none" font-family="sans-serif" dy="1.5625" font-size="25" fill="#2A2C34"/><text text-anchor="middle" pointer-events="none" x="0" y="0" font-size="10px" fill="#2A2C34" font-family="sans-serif"> The</text><text text-anchor="middle" pointer-events="none" x="0" y="10" font-size="10px" fill="#2A2C34" font-family="sans-serif"> Matrix</text></g></g></svg>