<svg xmlns="http://www.w3.org/2000/svg" width="290.7667236328125" height="500.832763671875" viewBox="-58.11151123046875 -114.64689636230469 290.7667236328125 500.832763671875"><title>Neo4j Graph Visualization</title><desc>Created using Neo4j (http://www.neo4j.com/)</desc><g class="layer relationships"><g class="relationship" transform="translate(88.36159155922111 250.97994697603417) rotate(465.71559946476157)"><path class="outline" fill="#A5ABB6" stroke="none" d="M 25 0.5 L 28.981804424877375 0.5 L 28.981804424877375 -0.5 L 25 -0.5 Z M 74.34846931135198 0.5 L 78.33027373622936 0.5 L 78.33027373622936 3.5 L 85.33027373622936 0 L 78.33027373622936 -3.5 L 78.33027373622936 -0.5 L 74.34846931135198 -0.5 Z"/><text text-anchor="middle" pointer-events="none" font-size="8px" fill="#000000" x="51.66513686811468" y="3" transform="rotate(180 51.66513686811468 0)" font-family="sans-serif">ACTED_IN</text></g><g class="relationship" transform="translate(88.36159155922111 250.97994697603417) rotate(384.914173233481)"><path class="outline" fill="#A5ABB6" stroke="none" d="M 25 0.5 L 32.18696766256047 0.5 L 32.18696766256047 -0.5 L 25 -0.5 Z M 77.55363254903509 0.5 L 84.74060021159555 0.5 L 84.74060021159555 3.5 L 91.74060021159555 0 L 84.74060021159555 -3.5 L 84.74060021159555 -0.5 L 77.55363254903509 -0.5 Z"/><text text-anchor="middle" pointer-events="none" font-size="8px" fill="#000000" x="54.870300105797774" y="3" font-family="sans-serif">ACTED_IN</text></g><g class="relationship" transform="translate(88.36159155922111 250.97994697603417) rotate(254.19294120320785)"><path class="outline" fill="#A5ABB6" stroke="none" d="M 25 0.5 L 35.65910830082965 0.5 L 35.65910830082965 -0.5 L 25 -0.5 Z M 81.02577318730425 0.5 L 91.68488148813391 0.5 L 91.68488148813391 3.5 L 98.68488148813391 0 L 91.68488148813391 -3.5 L 91.68488148813391 -0.5 L 81.02577318730425 -0.5 Z"/><text text-anchor="middle" pointer-events="none" font-size="8px" fill="#000000" x="58.342440744066955" y="3" transform="rotate(180 58.342440744066955 0)" font-family="sans-serif">ACTED_IN</text></g><g class="relationship" transform="translate(88.36159155922111 250.97994697603417) rotate(283.02806137068836)"><path class="outline" fill="#A5ABB6" stroke="none" d="M 25 0.5 L 25.510026513838035 0.5 L 25.510026513838035 -0.5 L 25 -0.5 Z M 70.87669140031264 0.5 L 71.38671791415068 0.5 L 71.38671791415068 3.5 L 78.38671791415068 0 L 71.38671791415068 -3.5 L 71.38671791415068 -0.5 L 70.87669140031264 -0.5 Z"/><text text-anchor="middle" pointer-events="none" font-size="8px" fill="#000000" x="48.19335895707534" y="3" font-family="sans-serif">ACTED_IN</text></g><g class="relationship" transform="translate(-16.68641808197979 192.80228565890772) rotate(319.55302266801186)"><path class="outline" fill="#A5ABB6" stroke="none" d="M 25 0.5 L 25.95789987116582 0.5 L 25.95789987116582 -0.5 L 25 -0.5 Z M 60.80790025263555 0.5 L 61.76580012380137 0.5 L 61.76580012380137 3.5 L 68.76580012380137 0 L 61.76580012380137 -3.5 L 61.76580012380137 -0.5 L 60.80790025263555 -0.5 Z"/><text text-anchor="middle" pointer-events="none" font-size="8px" fill="#000000" x="43.382900061900685" y="3" font-family="sans-serif">ACTE…</text></g><g class="relationship" transform="translate(-16.68641808197979 192.80228565890772) rotate(341.66028049959993)"><path class="outline" fill="#A5ABB6" stroke="none" d="M 25 0.5 L 41.42795627191444 0.5 L 41.42795627191444 -0.5 L 25 -0.5 Z M 86.79462115838905 0.5 L 103.22257743030349 0.5 L 103.22257743030349 3.5 L 110.22257743030349 0 L 103.22257743030349 -3.5 L 103.22257743030349 -0.5 L 86.79462115838905 -0.5 Z"/><text text-anchor="middle" pointer-events="none" font-size="8px" fill="#000000" x="64.11128871515174" y="3" font-family="sans-serif">ACTED_IN</text></g><g class="relationship" transform="translate(196.393239095103 124.24680741904625) rotate(536.8798400674596)"><path class="outline" fill="#A5ABB6" stroke="none" d="M 25 0.5 L 44.78349993987186 0.5 L 44.78349993987186 -0.5 L 25 -0.5 Z M 90.15016482634647 0.5 L 109.93366476621833 0.5 L 109.93366476621833 3.5 L 116.93366476621833 0 L 109.93366476621833 -3.5 L 109.93366476621833 -0.5 L 90.15016482634647 -0.5 Z"/><text text-anchor="middle" pointer-events="none" font-size="8px" fill="#000000" x="67.46683238310916" y="3" transform="rotate(180 67.46683238310916 0)" font-family="sans-serif">ACTED_IN</text></g><g class="relationship" transform="translate(196.393239095103 124.24680741904625) rotate(522.9354092880342)"><path class="outline" fill="#A5ABB6" stroke="none" d="M 25 0.5 L 25.91360774944762 0.5 L 25.91360774944762 -0.5 L 25 -0.5 Z M 55.71360698650817 0.5 L 56.62721473595579 0.5 L 56.62721473595579 3.5 L 63.62721473595579 0 L 56.62721473595579 -3.5 L 56.62721473595579 -0.5 L 55.71360698650817 -0.5 Z"/><text text-anchor="middle" pointer-events="none" font-size="8px" fill="#000000" x="40.813607367977895" y="3" transform="rotate(180 40.813607367977895 0)" font-family="sans-serif">ACT…</text></g><g class="relationship" transform="translate(91.0026813152032 29.118768947378527) rotate(338.392065377584)"><path class="outline" fill="#A5ABB6" stroke="none" d="M 25 0.5 L 34.400418396317455 0.5 L 34.400418396317455 -0.5 L 25 -0.5 Z M 79.76708328279207 0.5 L 89.16750167910952 0.5 L 89.16750167910952 3.5 L 96.16750167910952 0 L 89.16750167910952 -3.5 L 89.16750167910952 -0.5 L 79.76708328279207 -0.5 Z"/><text text-anchor="middle" pointer-events="none" font-size="8px" fill="#000000" x="57.08375083955476" y="3" font-family="sans-serif">ACTED_IN</text></g><g class="relationship" transform="translate(91.0026813152032 29.118768947378527) rotate(286.7956506171158)"><path class="outline" fill="#A5ABB6" stroke="none" d="M 25 0.5 L 33.75644362987212 0.5 L 33.75644362987212 -0.5 L 25 -0.5 Z M 79.12310851634673 0.5 L 87.87955214621886 0.5 L 87.87955214621886 3.5 L 94.87955214621886 0 L 87.87955214621886 -3.5 L 87.87955214621886 -0.5 L 79.12310851634673 -0.5 Z"/><text text-anchor="middle" pointer-events="none" font-size="8px" fill="#000000" x="56.43977607310943" y="3" font-family="sans-serif">ACTED_IN</text></g><g class="relationship" transform="translate(91.0026813152032 29.118768947378527) rotate(188.54036971190396)"><path class="outline" fill="#A5ABB6" stroke="none" d="M 25 0.5 L 34.547176874824615 0.5 L 34.547176874824615 -0.5 L 25 -0.5 Z M 79.91384176129922 0.5 L 89.46101863612384 0.5 L 89.46101863612384 3.5 L 96.46101863612384 0 L 89.46101863612384 -3.5 L 89.46101863612384 -0.5 L 79.91384176129922 -0.5 Z"/><text text-anchor="middle" pointer-events="none" font-size="8px" fill="#000000" x="57.23050931806192" y="3" transform="rotate(180 57.23050931806192 0)" font-family="sans-serif">ACTED_IN</text></g><g class="relationship" transform="translate(91.0026813152032 29.118768947378527) rotate(237.22488347669213)"><path class="outline" fill="#A5ABB6" stroke="none" d="M 25 0.5 L 33.451316391696764 0.5 L 33.451316391696764 -0.5 L 25 -0.5 Z M 78.81798127817137 0.5 L 87.26929766986814 0.5 L 87.26929766986814 3.5 L 94.26929766986814 0 L 87.26929766986814 -3.5 L 87.26929766986814 -0.5 L 78.81798127817137 -0.5 Z"/><text text-anchor="middle" pointer-events="none" font-size="8px" fill="#000000" x="56.13464883493407" y="3" transform="rotate(180 56.13464883493407 0)" font-family="sans-serif">ACTED_IN</text></g><g class="relationship" transform="translate(91.0026813152032 29.118768947378527) rotate(469.4556188061538)"><path class="outline" fill="#A5ABB6" stroke="none" d="M 25 0.5 L 28.35772918675613 0.5 L 28.35772918675613 -0.5 L 25 -0.5 Z M 73.72439407323074 0.5 L 77.08212325998687 0.5 L 77.08212325998687 3.5 L 84.08212325998687 0 L 77.08212325998687 -3.5 L 77.08212325998687 -0.5 L 73.72439407323074 -0.5 Z"/><text text-anchor="middle" pointer-events="none" font-size="8px" fill="#000000" x="51.041061629993436" y="3" transform="rotate(180 51.041061629993436 0)" font-family="sans-serif">ACTED_IN</text></g><g class="relationship" transform="translate(91.0026813152032 29.118768947378527) rotate(440.3187976641896)"><path class="outline" fill="#A5ABB6" stroke="none" d="M 25 0.5 L 35.25952278549855 0.5 L 35.25952278549855 -0.5 L 25 -0.5 Z M 80.62618767197316 0.5 L 90.8857104574717 0.5 L 90.8857104574717 3.5 L 97.8857104574717 0 L 90.8857104574717 -3.5 L 90.8857104574717 -0.5 L 80.62618767197316 -0.5 Z"/><text text-anchor="middle" pointer-events="none" font-size="8px" fill="#000000" x="57.94285522873585" y="3" font-family="sans-serif">ACTED_IN</text></g></g><g class="layer nodes"><g class="node" transform="translate(58.47725333813571,357.1858584489794)"><circle class="outline" cx="0" cy="0" r="25" fill="#57C7E3" stroke="#23b3d7" stroke-width="2px"/><text text-anchor="middle" pointer-events="none" font-family="sans-serif" dy="1.5625" font-size="25" fill="#2A2C34"/><text text-anchor="middle" pointer-events="none" font-family="sans-serif" dy="1.5625" font-size="25" fill="#2A2C34"/><text text-anchor="middle" pointer-events="none" x="0" y="0" font-size="10px" fill="#2A2C34" font-family="sans-serif"> Cloud</text><text text-anchor="middle" pointer-events="none" x="0" y="10" font-size="10px" fill="#2A2C34" font-family="sans-serif"> Atlas</text></g><g class="node" transform="translate(88.36159155922111,250.97994697603417)"><circle class="outline" cx="0" cy="0" r="25" fill="#F79767" stroke="#f36924" stroke-width="2px"/><text text-anchor="middle" pointer-events="none" font-family="sans-serif" dy="1.5625" font-size="25" fill="#FFFFFF"/><text text-anchor="middle" pointer-events="none" font-family="sans-serif" dy="1.5625" font-size="25" fill="#FFFFFF"/><text text-anchor="middle" pointer-events="none" x="0" y="0" font-size="10px" fill="#FFFFFF" font-family="sans-serif"> Hugo</text><text text-anchor="middle" pointer-events="none" x="0" y="10" font-size="10px" fill="#FFFFFF" font-family="sans-serif"> Weavi…</text></g><g class="node" transform="translate(194.23829226276234,300.1581127195461)"><circle class="outline" cx="0" cy="0" r="25" fill="#57C7E3" stroke="#23b3d7" stroke-width="2px"/><text text-anchor="middle" pointer-events="none" font-family="sans-serif" dy="1.5625" font-size="25" fill="#2A2C34"/><text text-anchor="middle" pointer-events="none" font-family="sans-serif" dy="1.5625" font-size="25" fill="#2A2C34"/><text text-anchor="middle" pointer-events="none" x="0" y="0" font-size="10px" fill="#2A2C34" font-family="sans-serif"> V for</text><text text-anchor="middle" pointer-events="none" x="0" y="10" font-size="10px" fill="#2A2C34" font-family="sans-serif"> Vendet…</text></g><g class="node" transform="translate(54.669979561845615,131.97227835862097)"><circle class="outline" cx="0" cy="0" r="25" fill="#57C7E3" stroke="#23b3d7" stroke-width="2px"/><text text-anchor="middle" pointer-events="none" font-family="sans-serif" dy="1.5625" font-size="25" fill="#2A2C34"/><text text-anchor="middle" pointer-events="none" font-family="sans-serif" dy="1.5625" font-size="25" fill="#2A2C34"/><text text-anchor="middle" pointer-events="none" font-family="sans-serif" dy="1.5625" font-size="25" fill="#2A2C34"/><text text-anchor="middle" pointer-events="none" x="0" y="-5" font-size="10px" fill="#2A2C34" font-family="sans-serif"> The</text><text text-anchor="middle" pointer-events="none" x="0" y="5" font-size="10px" fill="#2A2C34" font-family="sans-serif"> Matrix</text><text text-anchor="middle" pointer-events="none" x="0" y="15" font-size="10px" fill="#2A2C34" font-family="sans-serif"> Revol…</text></g><g class="node" transform="translate(111.66787721686597,150.2544264268485)"><circle class="outline" cx="0" cy="0" r="25" fill="#57C7E3" stroke="#23b3d7" stroke-width="2px"/><text text-anchor="middle" pointer-events="none" font-family="sans-serif" dy="1.5625" font-size="25" fill="#2A2C34"/><text text-anchor="middle" pointer-events="none" font-family="sans-serif" dy="1.5625" font-size="25" fill="#2A2C34"/><text text-anchor="middle" pointer-events="none" font-family="sans-serif" dy="1.5625" font-size="25" fill="#2A2C34"/><text text-anchor="middle" pointer-events="none" x="0" y="-5" font-size="10px" fill="#2A2C34" font-family="sans-serif"> The</text><text text-anchor="middle" pointer-events="none" x="0" y="5" font-size="10px" fill="#2A2C34" font-family="sans-serif"> Matrix</text><text text-anchor="middle" pointer-events="none" x="0" y="15" font-size="10px" fill="#2A2C34" font-family="sans-serif"> Reloa…</text></g><g class="node" transform="translate(-16.68641808197979,192.80228565890772)"><circle class="outline" cx="0" cy="0" r="25" fill="#F79767" stroke="#f36924" stroke-width="2px"/><text text-anchor="middle" pointer-events="none" font-family="sans-serif" dy="1.5625" font-size="25" fill="#FFFFFF"/><text text-anchor="middle" pointer-events="none" x="0" y="5" font-size="10px" fill="#FFFFFF" font-family="sans-serif"> Lauren…</text></g><g class="node" transform="translate(196.393239095103,124.24680741904625)"><circle class="outline" cx="0" cy="0" r="25" fill="#F79767" stroke="#f36924" stroke-width="2px"/><text text-anchor="middle" pointer-events="none" font-family="sans-serif" dy="1.5625" font-size="25" fill="#FFFFFF"/><text text-anchor="middle" pointer-events="none" x="0" y="5" font-size="10px" fill="#FFFFFF" font-family="sans-serif"> Carrie-…</text></g><g class="node" transform="translate(203.65519705087024,-15.501564551849143)"><circle class="outline" cx="0" cy="0" r="25" fill="#57C7E3" stroke="#23b3d7" stroke-width="2px"/><text text-anchor="middle" pointer-events="none" font-family="sans-serif" dy="1.5625" font-size="25" fill="#2A2C34"/><text text-anchor="middle" pointer-events="none" x="0" y="5" font-size="10px" fill="#2A2C34" font-family="sans-serif"> Someth…</text></g><g class="node" transform="translate(91.0026813152032,29.118768947378527)"><circle class="outline" cx="0" cy="0" r="25" fill="#F79767" stroke="#f36924" stroke-width="2px"/><text text-anchor="middle" pointer-events="none" font-family="sans-serif" dy="1.5625" font-size="25" fill="#FFFFFF"/><text text-anchor="middle" pointer-events="none" font-family="sans-serif" dy="1.5625" font-size="25" fill="#FFFFFF"/><text text-anchor="middle" pointer-events="none" x="0" y="0" font-size="10px" fill="#FFFFFF" font-family="sans-serif"> Keanu</text><text text-anchor="middle" pointer-events="none" x="0" y="10" font-size="10px" fill="#FFFFFF" font-family="sans-serif"> Reeves</text></g><g class="node" transform="translate(125.64297180658994,-85.64689358915871)"><circle class="outline" cx="0" cy="0" r="25" fill="#57C7E3" stroke="#23b3d7" stroke-width="2px"/><text text-anchor="middle" pointer-events="none" font-family="sans-serif" dy="1.5625" font-size="25" fill="#2A2C34"/><text text-anchor="middle" pointer-events="none" font-family="sans-serif" dy="1.5625" font-size="25" fill="#2A2C34"/><text text-anchor="middle" pointer-events="none" x="0" y="0" font-size="10px" fill="#2A2C34" font-family="sans-serif"> The</text><text text-anchor="middle" pointer-events="none" x="0" y="10" font-size="10px" fill="#2A2C34" font-family="sans-serif"> Replac…</text></g><g class="node" transform="translate(-29.11151361813577,11.081052250394208)"><circle class="outline" cx="0" cy="0" r="25" fill="#57C7E3" stroke="#23b3d7" stroke-width="2px"/><text text-anchor="middle" pointer-events="none" font-family="sans-serif" dy="1.5625" font-size="25" fill="#2A2C34"/><text text-anchor="middle" pointer-events="none" font-family="sans-serif" dy="1.5625" font-size="25" fill="#2A2C34"/><text text-anchor="middle" pointer-events="none" x="0" y="0" font-size="10px" fill="#2A2C34" font-family="sans-serif"> Johnny</text><text text-anchor="middle" pointer-events="none" x="0" y="10" font-size="10px" fill="#2A2C34" font-family="sans-serif"> Mnem…</text></g><g class="node" transform="translate(26.437069704274975,-71.16306970733692)"><circle class="outline" cx="0" cy="0" r="25" fill="#57C7E3" stroke="#23b3d7" stroke-width="2px"/><text text-anchor="middle" pointer-events="none" font-family="sans-serif" dy="1.5625" font-size="25" fill="#2A2C34"/><text text-anchor="middle" pointer-events="none" font-family="sans-serif" dy="1.5625" font-size="25" fill="#2A2C34"/><text text-anchor="middle" pointer-events="none" font-family="sans-serif" dy="1.5625" font-size="25" fill="#2A2C34"/><text text-anchor="middle" pointer-events="none" x="0" y="-5" font-size="10px" fill="#2A2C34" font-family="sans-serif"> The</text><text text-anchor="middle" pointer-events="none" x="0" y="5" font-size="10px" fill="#2A2C34" font-family="sans-serif"> Devil's</text><text text-anchor="middle" pointer-events="none" x="0" y="15" font-size="10px" fill="#2A2C34" font-family="sans-serif"> Advo…</text></g></g></svg>