<svg xmlns="http://www.w3.org/2000/svg" width="240.4563446044922" height="216.55914306640625" viewBox="-29.009807586669922 -20.864898681640625 240.4563446044922 216.55914306640625"><title>Neo4j Graph Visualization</title><desc>Created using Neo4j (http://www.neo4j.com/)</desc><g class="layer relationships"><g class="relationship" transform="translate(-0.00980689971756199 85.14213042893809) rotate(360.6253503180814)"><path class="outline" fill="#A5ABB6" stroke="none" d="M 25 0.5 L 25.372966411515854 0.5 L 25.372966411515854 -0.5 L 25 -0.5 Z M 60.22296679298558 0.5 L 60.595933204501435 0.5 L 60.595933204501435 3.5 L 67.59593320450143 0 L 60.595933204501435 -3.5 L 60.595933204501435 -0.5 L 60.22296679298558 -0.5 Z"/><text text-anchor="middle" pointer-events="none" font-size="8px" fill="#000000" x="42.79796660225072" y="3" font-family="sans-serif">ACTE…</text></g><g class="relationship" transform="translate(-0.00980689971756199 85.14213042893809) rotate(319.7577096342581)"><path class="outline" fill="#A5ABB6" stroke="none" d="M 25 0.5 L 33.41766906882836 0.5 L 33.41766906882836 -0.5 L 25 -0.5 Z M 78.78433395530297 0.5 L 87.20200302413133 0.5 L 87.20200302413133 3.5 L 94.20200302413133 0 L 87.20200302413133 -3.5 L 87.20200302413133 -0.5 L 78.78433395530297 -0.5 Z"/><text text-anchor="middle" pointer-events="none" font-size="8px" fill="#000000" x="56.101001512065665" y="3" font-family="sans-serif">ACTED_IN</text></g><g class="relationship" transform="translate(-0.00980689971756199 85.14213042893809) rotate(401.3316189977673)"><path class="outline" fill="#A5ABB6" stroke="none" d="M 25 0.5 L 35.559639698618305 0.5 L 35.559639698618305 -0.5 L 25 -0.5 Z M 80.92630458509291 0.5 L 91.48594428371122 0.5 L 91.48594428371122 3.5 L 98.48594428371122 0 L 91.48594428371122 -3.5 L 91.48594428371122 -0.5 L 80.92630458509291 -0.5 Z"/><text text-anchor="middle" pointer-events="none" font-size="8px" fill="#000000" x="58.24297214185561" y="3" font-family="sans-serif">ACTED_IN</text></g><g class="relationship" transform="translate(182.44654040503576 82.41926242385006) rotate(537.6210155453476)"><path class="outline" fill="#A5ABB6" stroke="none" d="M 25 0.5 L 26.571725136379783 0.5 L 26.571725136379783 -0.5 L 25 -0.5 Z M 56.37172437344033 0.5 L 57.94344950982011 0.5 L 57.94344950982011 3.5 L 64.94344950982011 0 L 57.94344950982011 -3.5 L 57.94344950982011 -0.5 L 56.37172437344033 -0.5 Z"/><text text-anchor="middle" pointer-events="none" font-size="8px" fill="#000000" x="41.471724754910056" y="3" transform="rotate(180 41.471724754910056 0)" font-family="sans-serif">ACT…</text></g><g class="relationship" transform="translate(182.44654040503576 82.41926242385006) rotate(219.08144528446115)"><path class="outline" fill="#A5ABB6" stroke="none" d="M 25 0.5 L 32.732657298280664 0.5 L 32.732657298280664 -0.5 L 25 -0.5 Z M 78.09932218475527 0.5 L 85.83197948303594 0.5 L 85.83197948303594 3.5 L 92.83197948303594 0 L 85.83197948303594 -3.5 L 85.83197948303594 -0.5 L 78.09932218475527 -0.5 Z"/><text text-anchor="middle" pointer-events="none" font-size="8px" fill="#000000" x="55.41598974151797" y="3" transform="rotate(180 55.41598974151797 0)" font-family="sans-serif">ACTED_IN</text></g><g class="relationship" transform="translate(182.44654040503576 82.41926242385006) rotate(496.79587010309905)"><path class="outline" fill="#A5ABB6" stroke="none" d="M 25 0.5 L 35.367225563890756 0.5 L 35.367225563890756 -0.5 L 25 -0.5 Z M 80.73389045036537 0.5 L 91.10111601425612 0.5 L 91.10111601425612 3.5 L 98.10111601425612 0 L 91.10111601425612 -3.5 L 91.10111601425612 -0.5 L 80.73389045036537 -0.5 Z"/><text text-anchor="middle" pointer-events="none" font-size="8px" fill="#000000" x="58.05055800712806" y="3" transform="rotate(180 58.05055800712806 0)" font-family="sans-serif">ACTED_IN</text></g></g><g class="layer nodes"><g class="node" transform="translate(-0.00980689971756199,85.14213042893809)"><circle class="outline" cx="0" cy="0" r="25" fill="#F79767" stroke="#f36924" stroke-width="2px"/><text text-anchor="middle" pointer-events="none" font-family="sans-serif" dy="1.5625" font-size="25" fill="#FFFFFF"/><text text-anchor="middle" pointer-events="none" font-family="sans-serif" dy="1.5625" font-size="25" fill="#FFFFFF"/><text text-anchor="middle" pointer-events="none" x="0" y="0" font-size="10px" fill="#FFFFFF" font-family="sans-serif"> Hugo</text><text text-anchor="middle" pointer-events="none" x="0" y="10" font-size="10px" fill="#FFFFFF" font-family="sans-serif"> Weavi…</text></g><g class="node" transform="translate(182.44654040503576,82.41926242385006)"><circle class="outline" cx="0" cy="0" r="25" fill="#F79767" stroke="#f36924" stroke-width="2px"/><text text-anchor="middle" pointer-events="none" font-family="sans-serif" dy="1.5625" font-size="25" fill="#FFFFFF"/><text text-anchor="middle" pointer-events="none" font-family="sans-serif" dy="1.5625" font-size="25" fill="#FFFFFF"/><text text-anchor="middle" pointer-events="none" x="0" y="0" font-size="10px" fill="#FFFFFF" font-family="sans-serif"> Keanu</text><text text-anchor="middle" pointer-events="none" x="0" y="10" font-size="10px" fill="#FFFFFF" font-family="sans-serif"> Reeves</text></g><g class="node" transform="translate(92.58061113240048,86.15274145704055)"><circle class="outline" cx="0" cy="0" r="25" fill="#57C7E3" stroke="#23b3d7" stroke-width="2px"/><text text-anchor="middle" pointer-events="none" font-family="sans-serif" dy="1.5625" font-size="25" fill="#2A2C34"/><text text-anchor="middle" pointer-events="none" font-family="sans-serif" dy="1.5625" font-size="25" fill="#2A2C34"/><text text-anchor="middle" pointer-events="none" font-family="sans-serif" dy="1.5625" font-size="25" fill="#2A2C34"/><text text-anchor="middle" pointer-events="none" x="0" y="-5" font-size="10px" fill="#2A2C34" font-family="sans-serif"> The</text><text text-anchor="middle" pointer-events="none" x="0" y="5" font-size="10px" fill="#2A2C34" font-family="sans-serif"> Matrix</text><text text-anchor="middle" pointer-events="none" x="0" y="15" font-size="10px" fill="#2A2C34" font-family="sans-serif"> Revol…</text></g><g class="node" transform="translate(90.97939504568977,8.13510052709798)"><circle class="outline" cx="0" cy="0" r="25" fill="#57C7E3" stroke="#23b3d7" stroke-width="2px"/><text text-anchor="middle" pointer-events="none" font-family="sans-serif" dy="1.5625" font-size="25" fill="#2A2C34"/><text text-anchor="middle" pointer-events="none" font-family="sans-serif" dy="1.5625" font-size="25" fill="#2A2C34"/><text text-anchor="middle" pointer-events="none" font-family="sans-serif" dy="1.5625" font-size="25" fill="#2A2C34"/><text text-anchor="middle" pointer-events="none" x="0" y="-5" font-size="10px" fill="#2A2C34" font-family="sans-serif"> The</text><text text-anchor="middle" pointer-events="none" x="0" y="5" font-size="10px" fill="#2A2C34" font-family="sans-serif"> Matrix</text><text text-anchor="middle" pointer-events="none" x="0" y="15" font-size="10px" fill="#2A2C34" font-family="sans-serif"> Reloa…</text></g><g class="node" transform="translate(92.71576316275714,166.69424316814877)"><circle class="outline" cx="0" cy="0" r="25" fill="#57C7E3" stroke="#23b3d7" stroke-width="2px"/><text text-anchor="middle" pointer-events="none" font-family="sans-serif" dy="1.5625" font-size="25" fill="#2A2C34"/><text text-anchor="middle" pointer-events="none" font-family="sans-serif" dy="1.5625" font-size="25" fill="#2A2C34"/><text text-anchor="middle" pointer-events="none" x="0" y="0" font-size="10px" fill="#2A2C34" font-family="sans-serif"> The</text><text text-anchor="middle" pointer-events="none" x="0" y="10" font-size="10px" fill="#2A2C34" font-family="sans-serif"> Matrix</text></g></g></svg>